<?xml version="1.0" standalone="no"?>
<!DOCTYPE svg PUBLIC "-//W3C//DTD SVG 20010904//EN"
 "http://www.w3.org/TR/2001/REC-SVG-20010904/DTD/svg10.dtd">
<svg version="1.0" xmlns="http://www.w3.org/2000/svg"
 width="512.000000pt" height="512.000000pt" viewBox="0 0 512.000000 512.000000"
 preserveAspectRatio="xMidYMid meet">
<metadata>
Created by potrace 1.11, written by Peter Selinger 2001-2013
</metadata>
<g transform="translate(0.000000,512.000000) scale(0.100000,-0.100000)"
fill="#000000" stroke="none">
<path d="M0 2560 l0 -2560 2560 0 2560 0 0 2560 0 2560 -2560 0 -2560 0 0
-2560z m3680 2100 l0 -140 140 0 140 0 0 -140 0 -140 -140 0 -140 0 0 -280 0
-280 140 0 140 0 0 -140 0 -140 -140 0 -139 0 -3 138 -3 137 -417 3 -418 2 0
-140 0 -140 -146 0 c-80 0 -143 -3 -141 -7 3 -5 -57 -7 -134 -5 -95 3 -139 0
-139 -7 0 -7 39 -12 108 -13 l107 -2 -107 -3 c-87 -3 -108 -7 -108 -18 0 -8
-8 -16 -17 -16 -16 -1 -16 -2 -1 -6 18 -5 31 -30 22 -44 -3 -5 54 -9 135 -9
78 0 141 -3 141 -7 0 -5 -63 -7 -140 -6 l-140 2 0 -35 c0 -30 3 -35 18 -30 16
6 16 5 0 -8 -23 -17 -23 -26 0 -27 16 -1 16 -2 0 -6 -10 -2 -18 -11 -18 -19 0
-11 25 -14 138 -14 l138 0 2 -40 c2 -32 0 -39 -13 -34 -18 7 -20 20 -2 27 6 3
-4 5 -23 6 -28 0 -31 -2 -15 -9 21 -8 14 -14 -30 -23 -11 -3 -4 -3 16 -2 41 3
69 -9 69 -30 0 -9 -11 -16 -27 -16 l-28 -2 28 -4 c20 -3 27 -10 27 -28 0 -19
-4 -22 -22 -17 -14 3 -19 2 -14 -6 4 -7 14 -12 22 -12 9 0 14 -11 14 -30 0
-27 -3 -30 -32 -32 l-33 -1 33 -4 c17 -2 32 -9 32 -15 0 -7 -37 -9 -112 -5
-62 3 -125 3 -140 0 -26 -5 -27 -8 -27 -67 1 -35 6 -64 12 -68 9 -6 9 -8 0 -8
-9 0 -13 -22 -13 -74 0 -63 3 -75 18 -79 9 -2 -37 -5 -102 -6 -66 -1 -122 -4
-125 -6 -2 -3 84 -5 193 -5 163 0 201 3 224 16 19 11 22 12 10 1 -16 -13 -11
-15 50 -20 37 -4 110 -8 162 -9 l95 -1 -110 -7 c-63 -4 -118 -2 -129 3 -11 5
-77 7 -147 5 -101 -4 -131 -8 -144 -21 -15 -16 -14 -17 27 -18 l43 -1 -40 -8
c-21 -4 -99 -6 -172 -5 -76 2 -133 -1 -133 -6 0 -7 156 -14 290 -11 27 0 29
-1 10 -5 -23 -5 -24 -6 -5 -14 13 -6 -4 -8 -51 -7 -39 1 -76 -2 -82 -6 -6 -3
-13 -2 -17 4 -3 5 -12 10 -18 10 -7 0 -6 -4 3 -10 11 -8 -3 -10 -50 -10 -86 2
-98 -2 -30 -9 30 -3 82 -4 115 -1 33 3 74 3 90 1 30 -4 30 -4 5 -11 -18 -6 -9
-8 35 -9 44 -1 56 -4 45 -11 -9 -6 -81 -10 -173 -9 -87 1 -160 -1 -164 -5 -3
-3 60 -6 141 -6 91 0 145 -4 141 -10 -3 -5 -12 -7 -19 -4 -8 3 -17 0 -22 -7
-5 -9 2 -11 27 -7 19 3 45 2 59 -3 17 -5 -1 -8 -55 -10 -80 -2 -80 -2 -25 -9
37 -4 44 -7 23 -8 -18 -1 -33 -6 -33 -10 0 -9 263 -7 328 3 29 4 49 2 60 -7
11 -9 14 -10 8 0 -4 7 -1 12 9 12 9 0 13 -4 10 -10 -8 -13 38 -13 51 0 6 6 21
6 41 1 17 -5 36 -5 44 0 8 5 25 8 39 8 23 0 23 -1 5 -9 -11 -4 90 -7 230 -5
301 3 284 2 265 15 -8 5 -10 10 -4 10 6 0 17 -7 24 -15 14 -17 40 -20 40 -5 0
6 -8 11 -17 11 -17 1 -17 2 0 6 20 5 23 39 5 46 -7 3 -4 6 6 6 31 1 9 14 -27
16 -17 0 -61 2 -97 3 -44 2 -60 5 -50 11 8 6 18 7 22 5 4 -3 8 0 8 5 0 6 17
10 38 10 l37 -2 -35 -6 c-34 -7 -33 -7 18 -12 68 -8 101 -1 98 19 -2 8 -11 19
-22 23 -17 7 -17 8 -1 8 20 1 22 21 5 40 -7 7 -8 11 -3 9 6 -2 11 0 13 5 6 19
0 27 -20 27 -13 0 -30 5 -38 11 -11 7 -5 9 25 7 35 -2 40 0 37 17 -2 11 -8 22
-14 24 -6 2 -4 7 3 12 11 7 9 9 -6 9 -19 1 -19 2 1 10 16 6 20 15 16 39 -2 17
-11 32 -21 34 -12 4 -11 5 4 6 18 1 20 6 17 37 -4 33 -6 35 -36 29 -27 -4 -28
-4 -8 5 35 15 48 32 45 63 l-2 27 139 0 c101 0 139 3 142 13 3 6 4 68 4 137
l-1 125 140 5 140 5 1 135 1 135 142 3 141 3 0 -141 0 -140 -140 0 -140 0 0
-140 0 -140 -140 0 -140 0 0 -420 0 -420 140 0 140 0 0 -141 0 -141 128 6 c70
4 147 7 171 8 36 2 47 -2 67 -25 31 -36 31 -74 -1 -167 -14 -40 -24 -74 -22
-75 1 -1 46 2 101 8 169 16 236 -9 236 -88 0 -78 -36 -101 -180 -115 -56 -6
-127 -14 -158 -18 l-57 -7 -3 -39 c-2 -22 -10 -45 -17 -50 -8 -6 -22 -56 -33
-112 -18 -97 -19 -159 -1 -170 13 -8 63 22 123 75 74 64 121 74 169 33 23 -21
22 -79 -4 -121 -58 -96 -201 -194 -300 -207 -65 -9 -146 17 -186 58 -33 34
-63 103 -63 144 0 38 -24 29 -102 -37 -40 -33 -89 -70 -110 -81 -35 -20 -37
-24 -40 -77 l-3 -56 -120 -2 c-66 -1 -128 -2 -137 -3 -16 0 -18 -15 -20 -138
l-3 -137 -215 2 c-118 1 -243 2 -277 3 l-62 0 -3 137 -3 138 -260 -3 c-143 -1
-268 -2 -277 -2 -16 0 -18 -13 -18 -140 l0 -141 -227 5 c-126 2 -252 5 -280 5
l-53 1 0 140 0 140 -137 -2 -138 -3 -3 138 -3 137 -139 0 -140 0 0 111 0 112
-42 -7 c-71 -11 -222 -46 -238 -56 -11 -7 -15 -45 -20 -178 -6 -191 -10 -203
-82 -222 -31 -9 -46 -7 -81 8 -23 11 -53 31 -66 46 -46 49 -41 156 26 606 27
182 33 251 28 307 -4 45 -3 79 5 92 10 20 8 21 -40 21 l-50 0 0 560 0 560 140
0 140 0 0 280 0 280 140 0 140 0 0 140 0 140 140 0 140 0 0 140 0 140 420 0
420 0 0 140 0 140 140 0 140 0 1 -37 c0 -21 0 -84 -1 -140 -1 -89 1 -103 17
-111 27 -14 113 -23 113 -12 0 5 -7 7 -15 4 -8 -4 -15 -1 -15 4 0 6 -8 12 -17
15 -10 2 -4 3 12 3 17 -1 32 -4 35 -7 8 -10 430 3 424 12 -5 9 19 12 66 10
l25 -1 -24 13 c-13 8 -33 12 -45 10 -17 -4 -18 -3 -6 6 10 7 11 11 3 11 -7 0
-13 5 -13 10 0 7 27 9 73 6 39 -2 90 0 112 4 29 6 12 8 -68 8 -59 0 -111 2
-114 6 -4 3 25 6 63 6 39 0 74 4 80 10 5 5 33 11 63 14 29 3 56 8 60 11 9 10
-116 -1 -176 -15 -33 -8 -66 -9 -90 -4 l-38 8 60 6 c53 6 55 7 17 8 -26 1 -41
6 -37 12 3 6 18 7 32 4 19 -5 24 -4 18 5 -4 7 -18 11 -31 8 -12 -2 -29 0 -36
5 -8 5 43 8 129 6 78 -2 145 1 149 5 7 7 -136 12 -230 7 -34 -1 -46 1 -41 9 4
7 15 9 26 6 10 -4 24 -3 31 2 9 5 1 10 -22 15 l-35 7 35 -4 c19 -2 55 -6 80
-10 31 -5 41 -3 31 3 -11 8 -9 11 10 15 23 4 22 4 -3 6 -16 0 -28 -4 -28 -11
0 -10 -2 -10 -8 -1 -4 6 -40 14 -80 16 -86 5 -108 17 -33 17 32 0 50 4 46 10
-8 13 1 13 28 -2 22 -12 132 -13 172 -2 16 4 17 3 5 -5 -10 -7 -11 -11 -3 -11
15 0 33 32 33 59 0 20 5 21 137 21 75 0 134 2 132 4 -3 3 -64 6 -137 7 -72 2
-132 6 -132 11 0 4 12 8 28 8 21 0 24 2 12 10 -12 8 -10 10 10 10 14 0 32 5
40 10 11 7 5 10 -24 10 -25 0 -43 -6 -52 -17 -12 -17 -13 -16 -11 5 1 15 9 25
27 29 14 3 32 11 40 17 13 9 13 9 2 -5 -12 -15 -5 -17 75 -17 48 1 97 4 108 9
13 5 -4 8 -50 9 -49 0 -66 3 -55 10 13 8 13 10 -2 10 -9 0 -18 -5 -20 -11 -3
-9 -9 -9 -25 -1 -22 12 -84 5 -94 -10 -3 -5 -6 7 -6 27 l0 35 136 2 136 2
-137 3 c-130 3 -138 5 -138 23 0 19 7 20 102 20 56 0 98 3 95 6 -8 8 -628 13
-704 6 -52 -5 -53 -5 -53 -38 0 -20 5 -34 13 -35 10 0 10 -2 0 -6 -9 -3 -13
-34 -13 -104 l0 -99 -27 -1 c-16 0 -36 -2 -45 -4 -10 -2 -18 1 -18 6 0 12 -47
12 -55 -1 -8 -13 -45 -13 -45 0 0 5 -15 9 -32 8 -18 0 -39 0 -45 1 -10 1 -13
36 -13 141 l0 140 140 0 140 0 0 140 0 140 420 0 420 0 0 -140z m-413 -296
c-3 -3 -12 -4 -19 -1 -8 3 -5 6 6 6 11 1 17 -2 13 -5z m-444 -161 c-7 -2 -19
-2 -25 0 -7 3 -2 5 12 5 14 0 19 -2 13 -5z m155 0 c-21 -2 -57 -2 -80 0 -24 2
-7 4 37 4 44 0 63 -2 43 -4z m-371 -9 c-3 -3 -12 -4 -19 -1 -8 3 -5 6 6 6 11
1 17 -2 13 -5z m88 -24 c-27 -12 -43 -12 -25 0 8 5 22 9 30 9 10 0 8 -3 -5 -9z
m102 4 c-3 -3 -12 -4 -19 -1 -8 3 -5 6 6 6 11 1 17 -2 13 -5z m60 0 c-3 -3
-12 -4 -19 -1 -8 3 -5 6 6 6 11 1 17 -2 13 -5z m170 0 c-3 -3 -12 -4 -19 -1
-8 3 -5 6 6 6 11 1 17 -2 13 -5z m-59 -21 c-10 -2 -28 -2 -40 0 -13 2 -5 4 17
4 22 1 32 -1 23 -4z m85 0 c-7 -2 -19 -2 -25 0 -7 3 -2 5 12 5 14 0 19 -2 13
-5z m-458 -13 c-3 -5 -11 -10 -16 -10 -6 0 -7 5 -4 10 3 6 11 10 16 10 6 0 7
-4 4 -10z m142 4 c-3 -3 -12 -4 -19 -1 -8 3 -5 6 6 6 11 1 17 -2 13 -5z m-59
-51 c-21 -2 -55 -2 -75 0 -21 2 -4 4 37 4 41 0 58 -2 38 -4z m389 -9 c-3 -3
-12 -4 -19 -1 -8 3 -5 6 6 6 11 1 17 -2 13 -5z m-280 -10 c-3 -3 -12 -4 -19
-1 -8 3 -5 6 6 6 11 1 17 -2 13 -5z m-137 -24 c0 -5 -5 -10 -11 -10 -5 0 -7 5
-4 10 3 6 8 10 11 10 2 0 4 -4 4 -10z m357 4 c-3 -3 -12 -4 -19 -1 -8 3 -5 6
6 6 11 1 17 -2 13 -5z m90 0 c-3 -3 -12 -4 -19 -1 -8 3 -5 6 6 6 11 1 17 -2
13 -5z m-387 -34 c-8 -5 -22 -9 -30 -9 -10 0 -8 3 5 9 27 12 43 12 25 0z m197
4 c-3 -3 -12 -4 -19 -1 -8 3 -5 6 6 6 11 1 17 -2 13 -5z m91 -1 c-10 -2 -28
-2 -40 0 -13 2 -5 4 17 4 22 1 32 -1 23 -4z m-370 -10 c-10 -2 -28 -2 -40 0
-13 2 -5 4 17 4 22 1 32 -1 23 -4z m232 -13 c0 -5 -12 -10 -27 -9 l-28 1 25 8
c14 4 26 8 28 9 1 1 2 -3 2 -9z m-177 -7 c-7 -2 -19 -2 -25 0 -7 3 -2 5 12 5
14 0 19 -2 13 -5z m95 0 c-10 -2 -28 -2 -40 0 -13 2 -5 4 17 4 22 1 32 -1 23
-4z m285 -600 c-7 -2 -19 -2 -25 0 -7 3 -2 5 12 5 14 0 19 -2 13 -5z m-196 -9
c-3 -3 -12 -4 -19 -1 -8 3 -5 6 6 6 11 1 17 -2 13 -5z m-307 -31 c0 -11 -3
-14 -8 -7 -4 6 -14 14 -22 17 -10 4 -8 6 8 6 15 1 22 -5 22 -16z m-53 -9 c-3
-3 -12 -4 -19 -1 -8 3 -5 6 6 6 11 1 17 -2 13 -5z m-41 -27 c4 -4 -34 -7 -85
-7 -51 0 -90 3 -88 8 6 9 164 8 173 -1z m89 3 c4 -6 -11 -10 -37 -9 -36 1 -39
2 -18 9 36 11 48 11 55 0z m402 -6 c-3 -3 -12 -4 -19 -1 -8 3 -5 6 6 6 11 1
17 -2 13 -5z m-477 -30 c0 -2 -7 -4 -15 -4 -8 0 -15 4 -15 10 0 5 7 7 15 4 8
-4 15 -8 15 -10z m-133 0 c-3 -3 -12 -4 -19 -1 -8 3 -5 6 6 6 11 1 17 -2 13
-5z m546 -31 c-7 -2 -19 -2 -25 0 -7 3 -2 5 12 5 14 0 19 -2 13 -5z m-496 -20
c-20 -2 -52 -2 -70 0 -17 2 0 4 38 4 39 0 53 -2 32 -4z m126 0 c-13 -2 -33 -2
-45 0 -13 2 -3 4 22 4 25 0 35 -2 23 -4z m-119 -38 c-4 -10 -18 -14 -43 -14
-32 2 -33 2 -7 6 22 4 26 7 15 14 -10 6 -7 9 13 9 20 0 26 -4 22 -15z m93 9
c-3 -3 -12 -4 -19 -1 -8 3 -5 6 6 6 11 1 17 -2 13 -5z m-151 -57 c1 -9 -2 -17
-8 -17 -6 0 -8 6 -5 14 3 8 2 17 -4 20 -5 2 -4 3 2 2 7 -1 13 -10 15 -19z m99
13 c-3 -5 -13 -10 -21 -10 -8 0 -14 5 -14 10 0 6 9 10 21 10 11 0 17 -4 14
-10z m662 4 c-3 -3 -12 -4 -19 -1 -8 3 -5 6 6 6 11 1 17 -2 13 -5z m-709 -21
c2 -7 -4 -13 -15 -13 -14 0 -15 2 -4 9 11 7 10 10 -5 14 -18 6 -18 6 0 4 11
-1 21 -8 24 -14z m89 11 c-3 -3 -12 -4 -19 -1 -8 3 -5 6 6 6 11 1 17 -2 13 -5z
m50 0 c-3 -3 -12 -4 -19 -1 -8 3 -5 6 6 6 11 1 17 -2 13 -5z m350 0 c-3 -3
-12 -4 -19 -1 -8 3 -5 6 6 6 11 1 17 -2 13 -5z m40 0 c-3 -3 -12 -4 -19 -1 -8
3 -5 6 6 6 11 1 17 -2 13 -5z m321 -41 c-10 -2 -26 -2 -35 0 -10 3 -2 5 17 5
19 0 27 -2 18 -5z m115 0 c-7 -2 -19 -2 -25 0 -7 3 -2 5 12 5 14 0 19 -2 13
-5z m-406 -9 c-3 -3 -12 -4 -19 -1 -8 3 -5 6 6 6 11 1 17 -2 13 -5z m346 -21
c-7 -2 -19 -2 -25 0 -7 3 -2 5 12 5 14 0 19 -2 13 -5z m-603 -33 c-8 -5 -19
-10 -25 -10 -5 0 -3 5 5 10 8 5 20 10 25 10 6 0 3 -5 -5 -10z m583 3 c-7 -2
-21 -2 -30 0 -10 3 -4 5 12 5 17 0 24 -2 18 -5z m204 1 c-3 -3 -12 -4 -19 -1
-8 3 -5 6 6 6 11 1 17 -2 13 -5z m-90 -50 c-3 -3 -12 -4 -19 -1 -8 3 -5 6 6 6
11 1 17 -2 13 -5z m-480 -20 c-3 -3 -12 -4 -19 -1 -8 3 -5 6 6 6 11 1 17 -2
13 -5z m258 -4 c-3 -5 -12 -10 -18 -10 -7 0 -6 4 3 10 19 12 23 12 15 0z
m-458 -6 c-3 -3 -12 -4 -19 -1 -8 3 -5 6 6 6 11 1 17 -2 13 -5z m550 0 c-3 -3
-12 -4 -19 -1 -8 3 -5 6 6 6 11 1 17 -2 13 -5z m-50 -20 c-3 -3 -12 -4 -19 -1
-8 3 -5 6 6 6 11 1 17 -2 13 -5z m86 -1 c-7 -2 -19 -2 -25 0 -7 3 -2 5 12 5
14 0 19 -2 13 -5z m-88 -23 c-3 -5 -27 -9 -53 -8 l-47 1 50 7 c28 4 51 8 53 8
2 1 0 -2 -3 -8z m-568 -16 c-3 -3 -12 -4 -19 -1 -8 3 -5 6 6 6 11 1 17 -2 13
-5z m626 -11 c-7 -2 -19 -2 -25 0 -7 3 -2 5 12 5 14 0 19 -2 13 -5z m-78 -53
c-27 -12 -43 -12 -25 0 8 5 22 9 30 9 10 0 8 -3 -5 -9z m153 3 c-10 -2 -28 -2
-40 0 -13 2 -5 4 17 4 22 1 32 -1 23 -4z m-710 -10 c-10 -2 -28 -2 -40 0 -13
2 -5 4 17 4 22 1 32 -1 23 -4z m79 1 c-3 -3 -12 -4 -19 -1 -8 3 -5 6 6 6 11 1
17 -2 13 -5z m56 -1 c-7 -2 -19 -2 -25 0 -7 3 -2 5 12 5 14 0 19 -2 13 -5z
m590 -20 c-13 -2 -33 -2 -45 0 -13 2 -3 4 22 4 25 0 35 -2 23 -4z m-766 -29
c-3 -3 -12 -4 -19 -1 -8 3 -5 6 6 6 11 1 17 -2 13 -5z m66 -1 c-7 -2 -19 -2
-25 0 -7 3 -2 5 12 5 14 0 19 -2 13 -5z m-320 -20 c-7 -2 -19 -2 -25 0 -7 3
-2 5 12 5 14 0 19 -2 13 -5z m242 -2 c24 -5 -11 -6 -85 -3 -69 3 -127 6 -129
8 -8 7 174 3 214 -5z m315 -1 c0 -5 -7 -7 -15 -4 -8 4 -15 8 -15 10 0 2 7 4
15 4 8 0 15 -4 15 -10z m78 3 c-10 -2 -26 -2 -35 0 -10 3 -2 5 17 5 19 0 27
-2 18 -5z m99 1 c-3 -3 -12 -4 -19 -1 -8 3 -5 6 6 6 11 1 17 -2 13 -5z m101
-1 c-10 -2 -28 -2 -40 0 -13 2 -5 4 17 4 22 1 32 -1 23 -4z m65 0 c-7 -2 -19
-2 -25 0 -7 3 -2 5 12 5 14 0 19 -2 13 -5z m95 0 c-16 -2 -40 -2 -55 0 -16 2
-3 4 27 4 30 0 43 -2 28 -4z m-660 -10 c-10 -2 -26 -2 -35 0 -10 3 -2 5 17 5
19 0 27 -2 18 -5z m49 1 c-3 -3 -12 -4 -19 -1 -8 3 -5 6 6 6 11 1 17 -2 13 -5z
m-240 -20 c-3 -3 -12 -4 -19 -1 -8 3 -5 6 6 6 11 1 17 -2 13 -5z m386 -1 c-13
-2 -33 -2 -45 0 -13 2 -3 4 22 4 25 0 35 -2 23 -4z m184 1 c-3 -3 -12 -4 -19
-1 -8 3 -5 6 6 6 11 1 17 -2 13 -5z m210 0 c-3 -3 -12 -4 -19 -1 -8 3 -5 6 6
6 11 1 17 -2 13 -5z m-620 -10 c-3 -3 -12 -4 -19 -1 -8 3 -5 6 6 6 11 1 17 -2
13 -5z m-310 -10 c-3 -3 -12 -4 -19 -1 -8 3 -5 6 6 6 11 1 17 -2 13 -5z m816
-1 c-7 -2 -21 -2 -30 0 -10 3 -4 5 12 5 17 0 24 -2 18 -5z m-236 -9 c-3 -3
-12 -4 -19 -1 -8 3 -5 6 6 6 11 1 17 -2 13 -5z m-500 -10 c-3 -3 -12 -4 -19
-1 -8 3 -5 6 6 6 11 1 17 -2 13 -5z m73 2 c0 -2 -9 -6 -20 -9 -11 -3 -18 -1
-14 4 5 9 34 13 34 5z m477 -13 c-9 -2 -14 -9 -10 -15 4 -8 0 -9 -13 -3 -10 5
-47 9 -81 10 -102 2 -82 13 24 13 54 0 90 -2 80 -5z m-224 -10 c-7 -2 -19 -2
-25 0 -7 3 -2 5 12 5 14 0 19 -2 13 -5z m297 -3 c-8 -5 -22 -9 -30 -9 -10 0
-8 3 5 9 27 12 43 12 25 0z m-643 -6 c-3 -3 -12 -4 -19 -1 -8 3 -5 6 6 6 11 1
17 -2 13 -5z m40 0 c-3 -3 -12 -4 -19 -1 -8 3 -5 6 6 6 11 1 17 -2 13 -5z m70
0 c-3 -3 -12 -4 -19 -1 -8 3 -5 6 6 6 11 1 17 -2 13 -5z m600 0 c-3 -3 -12 -4
-19 -1 -8 3 -5 6 6 6 11 1 17 -2 13 -5z m91 -1 c-10 -2 -26 -2 -35 0 -10 3 -2
5 17 5 19 0 27 -2 18 -5z m-325 -30 c-7 -2 -19 -2 -25 0 -7 3 -2 5 12 5 14 0
19 -2 13 -5z m44 1 c-3 -3 -12 -4 -19 -1 -8 3 -5 6 6 6 11 1 17 -2 13 -5z m86
-1 c-7 -2 -19 -2 -25 0 -7 3 -2 5 12 5 14 0 19 -2 13 -5z m50 0 c-7 -2 -19 -2
-25 0 -7 3 -2 5 12 5 14 0 19 -2 13 -5z m54 1 c-3 -3 -12 -4 -19 -1 -8 3 -5 6
6 6 11 1 17 -2 13 -5z m-520 -10 c-3 -3 -12 -4 -19 -1 -8 3 -5 6 6 6 11 1 17
-2 13 -5z m110 0 c-3 -3 -12 -4 -19 -1 -8 3 -5 6 6 6 11 1 17 -2 13 -5z m46
-1 c-7 -2 -19 -2 -25 0 -7 3 -2 5 12 5 14 0 19 -2 13 -5z m470 -10 c-13 -2
-35 -2 -50 0 -16 2 -5 4 22 4 28 0 40 -2 28 -4z m60 0 c-7 -2 -19 -2 -25 0 -7
3 -2 5 12 5 14 0 19 -2 13 -5z m-236 -9 c-3 -3 -12 -4 -19 -1 -8 3 -5 6 6 6
11 1 17 -2 13 -5z m-640 -20 c-3 -3 -12 -4 -19 -1 -8 3 -5 6 6 6 11 1 17 -2
13 -5z m710 0 c-3 -3 -12 -4 -19 -1 -8 3 -5 6 6 6 11 1 17 -2 13 -5z m176 -1
c-7 -2 -19 -2 -25 0 -7 3 -2 5 12 5 14 0 19 -2 13 -5z m-656 -9 c-3 -3 -12 -4
-19 -1 -8 3 -5 6 6 6 11 1 17 -2 13 -5z m-270 -10 c-3 -3 -12 -4 -19 -1 -8 3
-5 6 6 6 11 1 17 -2 13 -5z m190 0 c-3 -3 -12 -4 -19 -1 -8 3 -5 6 6 6 11 1
17 -2 13 -5z m520 0 c-3 -3 -12 -4 -19 -1 -8 3 -5 6 6 6 11 1 17 -2 13 -5z
m91 -1 c-10 -2 -28 -2 -40 0 -13 2 -5 4 17 4 22 1 32 -1 23 -4z m86 -1 c3 -5
-8 -6 -25 -4 -16 2 -29 6 -29 8 0 8 49 4 54 -4z m94 1 c-10 -2 -26 -2 -35 0
-10 3 -2 5 17 5 19 0 27 -2 18 -5z m-659 -7 c-12 -10 -60 -16 -54 -6 3 5 18
10 32 10 15 0 24 -2 22 -4z m38 -2 c-3 -3 -12 -4 -19 -1 -8 3 -5 6 6 6 11 1
17 -2 13 -5z m201 -1 c-16 -2 -40 -2 -55 0 -16 2 -3 4 27 4 30 0 43 -2 28 -4z
m-505 -10 c-7 -2 -21 -2 -30 0 -10 3 -4 5 12 5 17 0 24 -2 18 -5z m504 -10
c-20 -2 -52 -2 -70 0 -17 2 0 4 38 4 39 0 53 -2 32 -4z m126 0 c-13 -2 -33 -2
-45 0 -13 2 -3 4 22 4 25 0 35 -2 23 -4z m194 1 c-3 -3 -12 -4 -19 -1 -8 3 -5
6 6 6 11 1 17 -2 13 -5z m86 -1 c-7 -2 -19 -2 -25 0 -7 3 -2 5 12 5 14 0 19
-2 13 -5z m-170 -20 c-13 -2 -35 -2 -50 0 -16 2 -5 4 22 4 28 0 40 -2 28 -4z
m70 0 c-7 -2 -21 -2 -30 0 -10 3 -4 5 12 5 17 0 24 -2 18 -5z m83 -2 c-3 -5
-15 -7 -26 -4 -28 7 -25 13 6 13 14 0 23 -4 20 -9z m-383 -8 c-13 -2 -35 -2
-50 0 -16 2 -5 4 22 4 28 0 40 -2 28 -4z m54 1 c-3 -3 -12 -4 -19 -1 -8 3 -5
6 6 6 11 1 17 -2 13 -5z m-489 -21 c-38 -2 -98 -2 -135 0 -38 2 -7 3 67 3 74
0 105 -1 68 -3z m342 -3 c-8 -5 -22 -10 -30 -10 -13 0 -13 1 0 10 8 5 22 10
30 10 13 0 13 -1 0 -10z m129 6 c-2 -2 -22 -6 -44 -10 -29 -5 -36 -4 -25 3 13
10 79 16 69 7z m59 -3 c-10 -2 -26 -2 -35 0 -10 3 -2 5 17 5 19 0 27 -2 18 -5z
m129 0 c-20 -2 -52 -2 -70 0 -17 2 0 4 38 4 39 0 53 -2 32 -4z m116 0 c-7 -2
-19 -2 -25 0 -7 3 -2 5 12 5 14 0 19 -2 13 -5z m68 0 c-19 -4 -21 -7 -10 -14
10 -6 3 -9 -21 -9 l-35 0 25 14 c14 8 34 14 45 14 15 -1 14 -2 -4 -5z m-677
-13 c-61 -4 -116 -10 -122 -14 -7 -4 -22 -4 -35 1 -18 6 -15 9 23 14 25 3 90
6 145 6 l100 0 -111 -7z m-221 -7 c-13 -2 -35 -2 -50 0 -16 2 -5 4 22 4 28 0
40 -2 28 -4z m607 -3 c0 -5 -5 -10 -11 -10 -5 0 -7 5 -4 10 3 6 8 10 11 10 2
0 4 -4 4 -10z m95 0 c-16 -4 -39 -8 -50 -9 -16 -1 -17 1 -5 9 8 5 31 9 50 9
l35 -1 -30 -8z m98 3 c-7 -2 -19 -2 -25 0 -7 3 -2 5 12 5 14 0 19 -2 13 -5z
m-385 -10 c-21 -2 -55 -2 -75 0 -21 2 -4 4 37 4 41 0 58 -2 38 -4z m85 0 c-7
-2 -21 -2 -30 0 -10 3 -4 5 12 5 17 0 24 -2 18 -5z m-525 -20 c-10 -2 -26 -2
-35 0 -10 3 -2 5 17 5 19 0 27 -2 18 -5z m75 0 c-7 -2 -19 -2 -25 0 -7 3 -2 5
12 5 14 0 19 -2 13 -5z m586 3 c-9 -9 -173 -16 -186 -8 -7 4 34 9 90 10 56 2
99 1 96 -2z m188 -3 c-7 -7 -159 -4 -166 3 -2 2 35 4 84 4 49 0 85 -3 82 -7z
m56 0 c-7 -2 -21 -2 -30 0 -10 3 -4 5 12 5 17 0 24 -2 18 -5z m-694 -7 c-2 -2
-22 -6 -44 -9 -27 -4 -35 -3 -25 3 14 9 79 15 69 6z m58 -2 c-3 -3 -12 -4 -19
-1 -8 3 -5 6 6 6 11 1 17 -2 13 -5z m-229 -11 c-21 -2 -57 -2 -80 0 -24 2 -7
4 37 4 44 0 63 -2 43 -4z m752 -3 c-19 -5 -45 -6 -56 -4 -12 3 -24 2 -27 -3
-3 -5 -25 -6 -49 -4 l-43 5 50 7 c28 3 75 6 105 6 50 1 52 0 20 -7z m137 4
c-3 -3 -12 -4 -19 -1 -8 3 -5 6 6 6 11 1 17 -2 13 -5z m-429 -11 c-46 -7 -32
-24 15 -18 l42 6 -30 -15 c-29 -14 -28 -15 38 -11 40 3 67 1 67 -5 0 -15 -142
-12 -162 4 -10 7 -15 16 -12 19 15 14 -57 19 -162 11 -62 -5 -123 -6 -136 -3
-39 10 31 16 207 16 88 0 148 -2 133 -4z m79 1 c-3 -3 -12 -4 -19 -1 -8 3 -5
6 6 6 11 1 17 -2 13 -5z m-670 -20 c-3 -3 -12 -4 -19 -1 -8 3 -5 6 6 6 11 1
17 -2 13 -5z m86 -1 c-13 -2 -35 -2 -50 0 -16 2 -5 4 22 4 28 0 40 -2 28 -4z
m60 0 c-7 -2 -19 -2 -25 0 -7 3 -2 5 12 5 14 0 19 -2 13 -5z m687 -2 c0 -5 10
-11 23 -13 13 -3 6 -6 -20 -9 -23 -2 -57 1 -75 8 l-33 12 43 -6 c28 -4 42 -2
42 6 0 6 5 11 10 11 6 0 10 -4 10 -9z m223 2 c-7 -2 -21 -2 -30 0 -10 3 -4 5
12 5 17 0 24 -2 18 -5z m-606 -9 c-3 -3 -12 -4 -19 -1 -8 3 -5 6 6 6 11 1 17
-2 13 -5z m-372 -14 c-3 -5 -14 -10 -23 -10 -15 0 -15 2 -2 10 20 13 33 13 25
0z m181 -6 c10 -8 13 -12 5 -8 -8 4 -48 9 -89 11 -99 4 -106 13 -11 13 54 0
81 -5 95 -16z m114 2 c0 -2 -16 -6 -35 -8 -19 -2 -35 0 -35 4 0 4 16 8 35 8
19 0 35 -2 35 -4z m138 -3 c-16 -2 -40 -2 -55 0 -16 2 -3 4 27 4 30 0 43 -2
28 -4z m-238 -23 l55 -9 -62 4 c-35 2 -66 -1 -69 -6 -3 -5 -13 -9 -22 -9 -15
0 -15 2 -2 10 10 6 -17 10 -85 13 l-100 3 115 1 c63 1 140 -3 170 -7z m317 -4
c4 -3 -52 -5 -123 -4 -117 1 -121 2 -49 7 94 7 164 6 172 -3z m453 6 c0 -4
-46 -6 -102 -4 -57 1 -116 -2 -131 -8 -15 -5 -25 -5 -22 0 3 5 -14 7 -37 6
-25 -2 -42 -8 -40 -15 1 -7 -15 -11 -45 -10 -47 2 -47 2 -13 9 l35 7 -45 3
-45 3 55 7 c78 10 390 12 390 2z m-952 -29 c-10 -2 -26 -2 -35 0 -10 3 -2 5
17 5 19 0 27 -2 18 -5z m59 1 c-3 -3 -12 -4 -19 -1 -8 3 -5 6 6 6 11 1 17 -2
13 -5z m119 -6 c5 -7 2 -9 -9 -5 -9 3 -17 2 -19 -3 -2 -4 -9 -2 -16 6 -11 12
-9 14 12 14 14 0 28 -5 32 -12z m134 4 c0 -4 -24 -8 -54 -8 -30 1 -49 4 -43 8
16 10 97 10 97 0z m139 4 c-10 -9 -119 -14 -114 -6 4 6 31 10 62 10 31 0 54
-2 52 -4z m354 -3 c-7 -2 -21 -2 -30 0 -10 3 -4 5 12 5 17 0 24 -2 18 -5z
m120 0 c-7 -2 -21 -2 -30 0 -10 3 -4 5 12 5 17 0 24 -2 18 -5z m44 1 c-3 -3
-12 -4 -19 -1 -8 3 -5 6 6 6 11 1 17 -2 13 -5z m-1010 -20 c-3 -3 -12 -4 -19
-1 -8 3 -5 6 6 6 11 1 17 -2 13 -5z m86 -1 c-7 -2 -19 -2 -25 0 -7 3 -2 5 12
5 14 0 19 -2 13 -5z m60 0 c-7 -2 -19 -2 -25 0 -7 3 -2 5 12 5 14 0 19 -2 13
-5z m402 -3 c-11 -5 -27 -9 -35 -9 -9 0 -8 4 5 9 11 5 27 9 35 9 9 0 8 -4 -5
-9z m260 4 c-46 -7 -173 -9 -162 -2 7 4 50 7 97 6 47 0 76 -2 65 -4z m118 -1
c-7 -2 -21 -2 -30 0 -10 3 -4 5 12 5 17 0 24 -2 18 -5z"/>
<path d="M3638 4503 c6 -2 18 -2 25 0 6 3 1 5 -13 5 -14 0 -19 -2 -12 -5z"/>
<path d="M3438 4483 c7 -3 16 -2 19 1 4 3 -2 6 -13 5 -11 0 -14 -3 -6 -6z"/>
<path d="M3485 4479 c-5 -7 175 0 184 8 3 2 -36 3 -87 2 -51 -1 -95 -5 -97
-10z"/>
<path d="M3416 4429 c3 -5 44 -9 91 -9 48 0 83 3 79 8 -11 10 -177 12 -170 1z"/>
<path d="M3603 4403 c9 -2 23 -2 30 0 6 3 -1 5 -18 5 -16 0 -22 -2 -12 -5z"/>
<path d="M3513 4354 c10 -10 77 -13 82 -3 4 5 -15 9 -41 9 -26 0 -45 -3 -41
-6z"/>
<path d="M3620 4350 c0 -12 8 -12 35 0 18 8 17 9 -7 9 -16 1 -28 -3 -28 -9z"/>
<path d="M3480 4330 c-11 -7 4 -10 49 -10 35 0 62 2 60 4 -11 10 -96 15 -109
6z"/>
<path d="M3604 4328 c-3 -5 11 -8 30 -8 19 0 37 4 41 9 3 5 -11 9 -31 8 -20
-1 -38 -5 -40 -9z"/>
<path d="M3498 4268 c9 -9 15 -9 24 0 9 9 7 12 -12 12 -19 0 -21 -3 -12 -12z"/>
<path d="M3600 4269 c-11 -7 -4 -8 25 -3 50 8 58 14 19 14 -16 0 -36 -5 -44
-11z"/>
<path d="M3438 4243 c7 -3 16 -2 19 1 4 3 -2 6 -13 5 -11 0 -14 -3 -6 -6z"/>
<path d="M3538 4243 c12 -2 32 -2 45 0 12 2 2 4 -23 4 -25 0 -35 -2 -22 -4z"/>
<path d="M3328 4193 c6 -2 18 -2 25 0 6 3 1 5 -13 5 -14 0 -19 -2 -12 -5z"/>
<path d="M3283 4174 c9 -10 107 -11 107 -2 0 4 -25 8 -57 8 -31 0 -53 -3 -50
-6z"/>
<path d="M3200 4120 c0 -5 6 -10 14 -10 8 0 18 5 21 10 3 6 -3 10 -14 10 -12
0 -21 -4 -21 -10z"/>
<path d="M3250 4120 c0 -5 12 -10 26 -10 14 0 23 4 19 10 -3 6 -15 10 -26 10
-10 0 -19 -4 -19 -10z"/>
<path d="M3325 4120 c-3 -5 1 -10 10 -10 9 0 13 5 10 10 -3 6 -8 10 -10 10 -2
0 -7 -4 -10 -10z"/>
<path d="M3228 4093 c7 -3 16 -2 19 1 4 3 -2 6 -13 5 -11 0 -14 -3 -6 -6z"/>
<path d="M3370 4070 c-12 -8 -10 -10 8 -10 13 0 20 4 17 10 -7 12 -6 12 -25 0z"/>
<path d="M3303 4063 c9 -2 23 -2 30 0 6 3 -1 5 -18 5 -16 0 -22 -2 -12 -5z"/>
<path d="M3188 4013 c12 -2 32 -2 45 0 12 2 2 4 -23 4 -25 0 -35 -2 -22 -4z"/>
<path d="M3298 4013 c17 -2 47 -2 65 0 17 2 3 4 -33 4 -36 0 -50 -2 -32 -4z"/>
<path d="M3270 3989 c-30 -3 -47 -6 -37 -7 10 -1 15 -6 12 -12 -3 -5 1 -10 9
-10 8 0 18 5 21 11 4 6 23 10 44 9 54 -3 71 -1 71 8 0 9 -41 10 -120 1z"/>
<path d="M3163 3963 c15 -2 37 -2 50 0 12 2 0 4 -28 4 -27 0 -38 -2 -22 -4z"/>
<path d="M2714 3926 c-18 -14 -18 -15 7 -21 15 -4 38 -5 50 -2 15 3 9 5 -16 6
-30 1 -36 4 -25 11 8 5 32 9 53 8 20 -1 40 2 44 5 13 14 -94 7 -113 -7z"/>
<path d="M2573 3923 c9 -2 15 -9 12 -14 -4 -5 19 -8 52 -8 33 1 45 4 28 6 -16
3 -34 9 -39 14 -6 5 -24 8 -40 8 -18 -1 -23 -3 -13 -6z"/>
<path d="M2560 3873 c0 -8 17 -11 58 -7 31 3 79 7 105 9 95 7 60 16 -51 13
-78 -2 -112 -7 -112 -15z"/>
<path d="M2794 3881 c3 -5 15 -7 26 -4 28 7 25 13 -6 13 -14 0 -23 -4 -20 -9z"/>
<path d="M2815 3860 c-3 -5 -1 -10 4 -10 6 0 11 5 11 10 0 6 -2 10 -4 10 -3 0
-8 -4 -11 -10z"/>
<path d="M2605 3850 c4 -6 -5 -10 -19 -10 -14 0 -26 -5 -26 -11 0 -12 265 -7
277 5 4 3 -10 6 -30 6 -20 0 -37 5 -37 10 0 6 -5 10 -11 10 -5 0 -7 -4 -4 -10
4 -6 -20 -10 -64 -10 -41 0 -71 4 -71 10 0 6 -5 10 -11 10 -5 0 -7 -4 -4 -10z"/>
<path d="M2618 3798 c8 -8 23 -8 54 -1 l43 11 -54 1 c-42 1 -52 -2 -43 -11z"/>
<path d="M2748 3803 c18 -2 45 -2 60 0 15 2 0 4 -33 4 -33 0 -45 -2 -27 -4z"/>
<path d="M2568 3793 c6 -2 18 -2 25 0 6 3 1 5 -13 5 -14 0 -19 -2 -12 -5z"/>
<path d="M2715 3783 c-41 -3 -55 -7 -45 -13 10 -7 -5 -10 -47 -10 -35 0 -63
-4 -63 -9 0 -15 92 -11 126 5 19 9 50 14 75 11 l44 -4 -48 -1 c-27 -1 -46 -5
-44 -9 9 -14 117 -2 117 12 0 14 -24 26 -43 23 -7 -1 -39 -3 -72 -5z"/>
<path d="M2583 3773 c15 -2 37 -2 50 0 12 2 0 4 -28 4 -27 0 -38 -2 -22 -4z"/>
<path d="M2705 3712 c-2 -2 -35 -4 -74 -3 -40 0 -71 -4 -71 -9 0 -6 38 -8 98
-6 53 2 114 5 135 5 61 2 42 16 -23 17 -33 0 -62 -2 -65 -4z"/>
<path d="M1440 3540 l0 -140 -82 -1 c-46 -1 -109 -1 -140 0 l-58 1 0 -280 0
-280 -135 0 c-122 0 -135 -2 -136 -17 -1 -10 -2 -35 -3 -55 -2 -29 1 -38 13
-39 14 0 14 -1 1 -7 -11 -5 -15 -23 -14 -72 0 -60 2 -65 25 -71 24 -7 24 -7
-3 -8 -16 -1 -28 -4 -28 -8 0 -16 16 -31 35 -36 15 -4 14 -5 -7 -6 -33 -1 -38
-20 -5 -22 19 -1 19 -2 3 -6 -15 -4 -16 -7 -5 -14 11 -7 11 -9 -3 -9 -10 0
-18 -4 -18 -10 0 -5 8 -10 18 -11 14 0 14 -2 -3 -9 -14 -6 -3 -9 40 -10 55 -2
57 -3 25 -11 -19 -4 -42 -6 -52 -3 -9 3 -19 0 -23 -6 -3 -5 1 -10 9 -10 9 0
16 -4 16 -9 0 -5 8 -12 18 -14 11 -3 7 -5 -10 -6 -15 0 -30 -5 -33 -11 -4 -6
34 -10 106 -10 62 0 109 -3 106 -7 -4 -3 -49 -5 -101 -4 -86 2 -96 0 -106 -19
-10 -18 -8 -20 27 -22 37 -1 37 -1 6 -5 -73 -9 -26 -20 94 -21 69 -1 129 -5
132 -8 3 -3 -37 -5 -89 -4 -147 2 -170 1 -170 -9 0 -5 10 -12 23 -14 22 -4 22
-4 -2 -6 -19 -1 -22 -5 -17 -25 4 -15 1 -26 -7 -29 -6 -3 12 -6 41 -6 29 -1
51 3 48 8 -8 12 39 20 56 10 9 -6 7 -9 -9 -9 -12 0 -25 -4 -28 -10 -3 -5 -27
-10 -53 -10 -41 0 -48 -3 -48 -20 0 -16 7 -20 36 -19 32 1 33 2 10 9 l-25 8
28 1 c15 1 27 -3 27 -9 0 -13 67 -13 75 0 3 6 12 10 18 10 7 0 6 -4 -3 -10
-11 -7 -5 -10 24 -10 22 0 37 -3 33 -6 -3 -3 -55 -6 -116 -5 -66 0 -111 -4
-111 -9 0 -6 17 -10 38 -10 21 0 42 -4 48 -9 5 -6 29 -11 54 -14 31 -2 21 -4
-30 -5 -52 -1 -70 1 -60 8 11 7 6 10 -20 10 -23 0 -30 -3 -22 -9 11 -7 11 -9
-2 -14 -22 -9 -9 -37 18 -38 20 0 19 -1 -4 -12 -25 -11 -25 -11 9 -15 19 -2
37 2 41 8 10 15 126 25 135 10 4 -6 -4 -10 -22 -8 -53 3 -84 -2 -78 -13 4 -6
1 -10 -6 -8 -8 1 -32 1 -54 0 -28 -1 -35 -4 -25 -10 19 -11 130 -2 130 10 0 5
7 9 15 9 19 0 19 -7 0 -26 -11 -11 -35 -15 -87 -14 -137 3 -93 -4 67 -10 88
-3 180 -3 205 0 32 3 12 7 -70 11 -76 3 -107 8 -93 13 13 5 20 13 17 18 -4 6
25 9 77 8 131 -3 154 2 45 10 -54 5 -101 13 -105 18 -3 6 -24 12 -46 15 -22 2
43 5 145 6 102 2 196 6 210 10 14 4 -36 8 -110 8 -74 0 -135 4 -135 9 0 5 -13
12 -30 15 l-30 7 35 2 c19 1 44 6 55 11 16 7 14 8 -10 4 -16 -3 -37 -1 -45 5
-11 7 -7 10 20 11 l35 2 -35 7 c-19 4 -29 8 -22 9 29 3 9 21 -24 21 -19 0 -42
7 -50 15 -14 13 -11 15 28 14 40 -1 41 -2 13 -9 -28 -7 -27 -8 13 -9 24 0 41
3 38 8 -7 11 45 21 74 14 16 -4 21 -3 16 5 -4 8 -41 13 -94 14 l-87 2 70 5
c94 8 71 19 -31 16 -45 -2 -87 0 -93 5 -7 4 22 7 65 7 62 0 78 3 86 17 9 15
24 18 107 16 126 -3 166 -1 158 6 -4 4 -41 7 -84 7 -72 1 -73 1 -15 4 111 7
65 18 -58 14 -102 -3 -120 -1 -120 12 0 8 -6 18 -12 20 -7 3 56 6 141 6 85 1
152 4 148 7 -3 4 -76 7 -161 7 -86 1 -156 5 -156 9 0 4 12 8 26 8 14 0 23 4
19 10 -7 11 2 12 118 12 105 1 110 18 5 19 -46 1 -75 3 -65 6 9 2 17 8 17 13
0 5 35 8 78 8 53 -1 66 -3 42 -7 -33 -6 -34 -7 -9 -12 37 -8 91 1 86 14 -6 18
-71 27 -182 24 -57 -1 -101 1 -97 5 4 4 52 9 107 11 l100 3 -105 3 c-84 3 -95
5 -55 10 69 8 240 0 200 -9 l-30 -8 33 -1 c27 -1 33 2 30 17 -3 15 -18 17
-171 15 -112 -2 -167 1 -167 8 0 6 12 9 28 8 78 -6 213 2 206 12 -3 6 -18 9
-33 6 -14 -3 -39 1 -56 8 -16 8 -43 16 -60 18 -16 2 6 5 49 6 98 1 95 13 -3
13 -39 0 -71 4 -71 9 0 5 54 9 119 9 93 0 123 -3 135 -15 20 -20 26 -19 26 5
0 15 -7 20 -27 21 -41 1 -74 5 -108 13 -23 5 -25 4 -10 -3 15 -7 0 -10 -55
-10 -70 -1 -76 1 -76 20 0 16 5 19 23 14 13 -3 23 -1 23 5 0 5 -19 11 -42 12
-37 1 -39 2 -10 5 17 2 32 9 32 16 0 8 3 8 12 -1 14 -14 238 -17 238 -3 0 5
-9 7 -20 4 -11 -3 -20 0 -20 6 0 6 6 11 14 11 8 0 16 7 20 15 4 12 -5 15 -52
17 l-57 1 60 6 60 7 -45 7 c-25 3 -89 5 -143 4 -53 -1 -97 1 -97 6 0 4 63 7
140 7 80 0 140 4 140 9 0 6 -56 8 -135 6 -74 -2 -137 1 -141 6 -3 5 53 9 135
9 l141 0 0 29 c0 23 5 31 23 34 l22 4 -22 2 c-19 1 -22 6 -21 52 0 50 0 50 31
48 64 -4 177 1 177 9 0 4 -47 6 -104 4 l-104 -3 -1 55 0 56 52 2 52 1 -55 6
-55 6 75 6 c47 4 77 3 81 -3 7 -11 34 -8 74 7 16 5 17 5 5 -4 -13 -9 -11 -11
7 -11 12 0 28 7 36 15 8 8 17 11 21 8 10 -10 145 -10 139 1 -4 5 3 6 18 1 13
-4 51 -9 84 -11 33 -1 50 0 38 2 -15 4 -20 10 -16 21 5 13 -1 15 -35 11 -23
-2 -42 0 -42 4 0 5 17 8 39 8 l38 0 0 69 c0 63 -2 70 -21 74 -20 4 -20 4 2 6
12 0 22 6 22 12 0 6 -11 8 -27 5 -16 -3 -35 -2 -43 4 -11 7 -4 10 27 10 34 0
41 3 39 18 -2 13 -13 17 -47 17 -30 0 -43 -4 -41 -12 1 -7 -7 -13 -19 -13 -11
0 -17 5 -14 10 4 6 -11 11 -37 11 -105 4 86 17 260 18 l182 1 0 139 0 138
-420 2 -420 2 0 -141z m137 -156 c-3 -3 -12 -4 -19 -1 -8 3 -5 6 6 6 11 1 17
-2 13 -5z m201 -1 c-10 -2 -28 -2 -40 0 -13 2 -5 4 17 4 22 1 32 -1 23 -4z
m32 -43 c0 -5 -17 -9 -37 -9 -38 1 -38 1 -8 9 43 11 45 11 45 0z m97 -6 c-3
-3 -12 -4 -19 -1 -8 3 -5 6 6 6 11 1 17 -2 13 -5z m-72 -25 c-25 -10 -74 -10
-99 0 -11 4 9 7 50 8 44 0 62 -3 49 -8z m80 1 c-16 -5 -33 -6 -37 -2 -4 4 9 9
30 9 37 2 37 2 7 -7z m-40 -30 c10 -11 13 -20 7 -20 -7 0 -12 5 -12 10 0 6 -9
10 -21 10 -11 0 -17 5 -14 10 9 15 20 12 40 -10z m-118 4 c-3 -3 -12 -4 -19
-1 -8 3 -5 6 6 6 11 1 17 -2 13 -5z m46 -1 c-7 -2 -19 -2 -25 0 -7 3 -2 5 12
5 14 0 19 -2 13 -5z m-3 -29 c0 -2 -18 -4 -40 -4 -22 0 -40 3 -40 8 0 4 18 6
40 4 22 -2 40 -6 40 -8z m145 6 c-3 -5 -13 -10 -21 -10 -8 0 -14 5 -14 10 0 6
9 10 21 10 11 0 17 -4 14 -10z m-458 -6 c-3 -3 -12 -4 -19 -1 -8 3 -5 6 6 6
11 1 17 -2 13 -5z m366 -1 c-7 -2 -21 -2 -30 0 -10 3 -4 5 12 5 17 0 24 -2 18
-5z m127 -13 c0 -6 -25 -9 -57 -8 l-58 1 50 7 c28 4 53 8 58 8 4 1 7 -2 7 -8z
m-160 -4 c0 -9 -30 -14 -35 -6 -4 6 3 10 14 10 12 0 21 -2 21 -4z m37 -2 c-3
-3 -12 -4 -19 -1 -8 3 -5 6 6 6 11 1 17 -2 13 -5z m-70 -39 c0 -9 -9 -15 -21
-15 -16 0 -18 2 -7 9 11 7 7 10 -15 14 -27 4 -26 4 7 6 26 1 36 -3 36 -14z
m77 0 c-22 -16 -38 -20 -29 -6 3 5 -5 12 -17 14 -13 2 -3 5 21 6 41 1 43 0 25
-14z m-1 -42 c-24 -2 -62 -2 -85 0 -24 2 -5 4 42 4 47 0 66 -2 43 -4z m-593
-325 c0 -5 -24 -8 -52 -8 -29 0 -48 4 -41 8 16 10 93 10 93 0z m-133 -4 c-3
-3 -12 -4 -19 -1 -8 3 -5 6 6 6 11 1 17 -2 13 -5z m241 -1 c-15 -2 -42 -2 -60
0 -18 2 -6 4 27 4 33 0 48 -2 33 -4z m-435 -50 c-7 -2 -21 -2 -30 0 -10 3 -4
5 12 5 17 0 24 -2 18 -5z m64 1 c-3 -3 -12 -4 -19 -1 -8 3 -5 6 6 6 11 1 17
-2 13 -5z m96 -1 c-13 -2 -35 -2 -50 0 -16 2 -5 4 22 4 28 0 40 -2 28 -4z m92
-23 c3 -5 -3 -10 -15 -10 -12 0 -18 5 -15 10 3 6 10 10 15 10 5 0 12 -4 15
-10z m90 -19 c8 -28 34 -34 62 -16 13 9 34 14 46 12 19 -3 16 -6 -17 -21 -23
-11 -49 -15 -66 -11 -16 4 -44 7 -62 7 -18 1 -36 5 -39 10 -3 5 -13 2 -22 -6
-9 -9 -18 -12 -21 -7 -3 5 1 14 9 21 14 12 30 11 85 -6 22 -7 23 -6 12 9 -8 9
-26 18 -40 20 -21 3 -19 4 10 6 28 1 38 -3 43 -18z m32 13 c-3 -3 -12 -4 -19
-1 -8 3 -5 6 6 6 11 1 17 -2 13 -5z m16 -21 c-7 -2 -19 -2 -25 0 -7 3 -2 5 12
5 14 0 19 -2 13 -5z m-386 -49 c-3 -3 -12 -4 -19 -1 -8 3 -5 6 6 6 11 1 17 -2
13 -5z m21 -51 c-10 -2 -28 -2 -40 0 -13 2 -5 4 17 4 22 1 32 -1 23 -4z m25
-50 c-7 -2 -19 -2 -25 0 -7 3 -2 5 12 5 14 0 19 -2 13 -5z m114 1 c-3 -3 -12
-4 -19 -1 -8 3 -5 6 6 6 11 1 17 -2 13 -5z m93 -24 c0 -5 -9 -10 -20 -10 -11
0 -20 5 -20 10 0 6 9 10 20 10 11 0 20 -4 20 -10z m-113 -6 c-3 -3 -12 -4 -19
-1 -8 3 -5 6 6 6 11 1 17 -2 13 -5z m-104 -21 c-7 -2 -19 -2 -25 0 -7 3 -2 5
12 5 14 0 19 -2 13 -5z m70 0 c-7 -2 -19 -2 -25 0 -7 3 -2 5 12 5 14 0 19 -2
13 -5z m-30 -30 c-7 -2 -19 -2 -25 0 -7 3 -2 5 12 5 14 0 19 -2 13 -5z m80 0
c-7 -2 -19 -2 -25 0 -7 3 -2 5 12 5 14 0 19 -2 13 -5z m-106 -19 c-3 -3 -12
-4 -19 -1 -8 3 -5 6 6 6 11 1 17 -2 13 -5z m86 -1 c-7 -2 -21 -2 -30 0 -10 3
-4 5 12 5 17 0 24 -2 18 -5z m-120 -30 c-7 -2 -21 -2 -30 0 -10 3 -4 5 12 5
17 0 24 -2 18 -5z m54 1 c-3 -3 -12 -4 -19 -1 -8 3 -5 6 6 6 11 1 17 -2 13 -5z
m56 -1 c-7 -2 -19 -2 -25 0 -7 3 -2 5 12 5 14 0 19 -2 13 -5z m130 0 c-7 -2
-21 -2 -30 0 -10 3 -4 5 12 5 17 0 24 -2 18 -5z m-106 -19 c-3 -3 -12 -4 -19
-1 -8 3 -5 6 6 6 11 1 17 -2 13 -5z m84 -3 c-12 -8 -51 -4 -51 5 0 2 15 4 33
4 22 0 28 -3 18 -9z m-114 -27 c-3 -3 -12 -4 -19 -1 -8 3 -5 6 6 6 11 1 17 -2
13 -5z m60 0 c-3 -3 -12 -4 -19 -1 -8 3 -5 6 6 6 11 1 17 -2 13 -5z m-28 -23
c8 -5 -14 -7 -55 -4 -38 3 -71 7 -73 9 -9 8 115 3 128 -5z m-132 -57 c-3 -3
-12 -4 -19 -1 -8 3 -5 6 6 6 11 1 17 -2 13 -5z m120 0 c-3 -3 -12 -4 -19 -1
-8 3 -5 6 6 6 11 1 17 -2 13 -5z m60 0 c-3 -3 -12 -4 -19 -1 -8 3 -5 6 6 6 11
1 17 -2 13 -5z m-94 -21 c-7 -2 -21 -2 -30 0 -10 3 -4 5 12 5 17 0 24 -2 18
-5z m123 -2 c-3 -5 -15 -7 -26 -4 -28 7 -25 13 6 13 14 0 23 -4 20 -9z m71 3
c-3 -3 -12 -4 -19 -1 -8 3 -5 6 6 6 11 1 17 -2 13 -5z m-267 -54 c12 -8 11
-10 -7 -10 -13 0 -23 5 -23 10 0 13 11 13 30 0z m70 -24 c0 -8 -51 -13 -56 -5
-3 5 9 9 25 9 17 0 31 -2 31 -4z m-100 -26 c12 -8 11 -10 -7 -10 -13 0 -23 5
-23 10 0 13 11 13 30 0z m101 -31 c-16 -6 -28 -6 -35 1 -7 7 1 10 25 9 32 0
33 -1 10 -10z m-44 -25 c-3 -3 -12 -4 -19 -1 -8 3 -5 6 6 6 11 1 17 -2 13 -5z
m88 -44 c13 -6 15 -9 5 -9 -8 0 -22 4 -30 9 -18 12 -2 12 25 0z m-52 -7 c-7
-2 -19 -2 -25 0 -7 3 -2 5 12 5 14 0 19 -2 13 -5z m85 -20 c-10 -2 -26 -2 -35
0 -10 3 -2 5 17 5 19 0 27 -2 18 -5z m-169 -29 c10 -9 -6 -12 -31 -7 -15 3
-25 9 -22 15 5 8 41 2 53 -8z"/>
<path d="M2128 3273 c7 -3 16 -2 19 1 4 3 -2 6 -13 5 -11 0 -14 -3 -6 -6z"/>
<path d="M2228 3243 c7 -3 16 -2 19 1 4 3 -2 6 -13 5 -11 0 -14 -3 -6 -6z"/>
<path d="M2305 3099 c-18 -4 17 -7 84 -8 63 0 112 2 108 5 -8 9 -157 11 -192
3z"/>
<path d="M2518 3103 c7 -3 16 -2 19 1 4 3 -2 6 -13 5 -11 0 -14 -3 -6 -6z"/>
<path d="M1638 3083 c7 -3 16 -2 19 1 4 3 -2 6 -13 5 -11 0 -14 -3 -6 -6z"/>
<path d="M1540 3069 c-31 -6 -30 -6 18 -8 28 0 52 1 52 3 0 8 -37 11 -70 5z"/>
<path d="M2410 3070 c-8 -5 -10 -10 -5 -10 6 0 17 5 25 10 8 5 11 10 5 10 -5
0 -17 -5 -25 -10z"/>
<path d="M1450 3060 c0 -13 11 -13 30 0 12 8 11 10 -7 10 -13 0 -23 -4 -23
-10z"/>
<path d="M2318 3039 c25 -4 60 -4 80 0 31 8 23 9 -43 9 -72 0 -75 -1 -37 -9z"/>
<path d="M1468 3033 c7 -3 16 -2 19 1 4 3 -2 6 -13 5 -11 0 -14 -3 -6 -6z"/>
<path d="M1515 3030 c-8 -13 5 -13 25 0 13 8 13 10 -2 10 -9 0 -20 -4 -23 -10z"/>
<path d="M1565 3031 c-6 -11 13 -26 22 -17 4 3 0 7 -8 8 -8 1 22 5 66 8 l80 6
-77 2 c-42 1 -79 -2 -83 -7z"/>
<path d="M2280 3019 c0 -5 14 -9 32 -9 36 0 31 12 -7 16 -14 1 -25 -2 -25 -7z"/>
<path d="M2410 3019 c-19 -5 -14 -7 23 -8 26 -1 47 1 47 3 0 8 -46 12 -70 5z"/>
<path d="M1685 2990 c-18 -8 -17 -9 8 -9 15 -1 27 4 27 9 0 12 -8 12 -35 0z"/>
<path d="M2284 2988 c-3 -4 3 -8 13 -8 11 0 24 -5 30 -11 5 -5 30 -9 54 -6
l44 4 -47 1 c-55 2 -64 19 -15 25 18 3 9 4 -21 4 -29 0 -55 -4 -58 -9z"/>
<path d="M2433 2984 c16 -9 31 -13 35 -10 3 3 0 6 -7 6 -7 0 -9 5 -6 10 4 6
-6 10 -22 10 l-28 -1 28 -15z"/>
<path d="M2478 2993 c7 -3 16 -2 19 1 4 3 -2 6 -13 5 -11 0 -14 -3 -6 -6z"/>
<path d="M2485 2970 c3 -5 17 -10 31 -10 14 0 22 4 19 10 -3 6 -17 10 -31 10
-14 0 -22 -4 -19 -10z"/>
<path d="M1698 2963 c7 -3 16 -2 19 1 4 3 -2 6 -13 5 -11 0 -14 -3 -6 -6z"/>
<path d="M1473 2953 c9 -2 23 -2 30 0 6 3 -1 5 -18 5 -16 0 -22 -2 -12 -5z"/>
<path d="M1578 2953 c7 -3 16 -2 19 1 4 3 -2 6 -13 5 -11 0 -14 -3 -6 -6z"/>
<path d="M2280 2940 c0 -5 5 -10 11 -10 5 0 7 5 4 10 -3 6 -8 10 -11 10 -2 0
-4 -4 -4 -10z"/>
<path d="M2315 2940 c-3 -6 1 -7 9 -4 18 7 21 14 7 14 -6 0 -13 -4 -16 -10z"/>
<path d="M2383 2939 c16 -4 38 -4 50 0 15 6 6 8 -29 8 -41 0 -44 -1 -21 -8z"/>
<path d="M2478 2943 c7 -3 16 -2 19 1 4 3 -2 6 -13 5 -11 0 -14 -3 -6 -6z"/>
<path d="M1495 2930 c-3 -5 1 -10 9 -10 8 0 18 5 21 10 3 6 -1 10 -9 10 -8 0
-18 -4 -21 -10z"/>
<path d="M1548 2928 c9 -9 15 -9 24 0 9 9 7 12 -12 12 -19 0 -21 -3 -12 -12z"/>
<path d="M1613 2933 c15 -2 39 -2 55 0 15 2 2 4 -28 4 -30 0 -43 -2 -27 -4z"/>
<path d="M1630 2916 c0 -9 30 -14 35 -6 4 6 -3 10 -14 10 -12 0 -21 -2 -21 -4z"/>
<path d="M2370 2910 c52 -3 99 -2 105 2 5 4 -38 7 -95 6 l-105 -2 95 -6z"/>
<path d="M2490 2910 c0 -5 7 -7 15 -4 8 4 15 8 15 10 0 2 -7 4 -15 4 -8 0 -15
-4 -15 -10z"/>
<path d="M1450 2906 c0 -9 40 -13 46 -5 3 5 -6 9 -20 9 -14 0 -26 -2 -26 -4z"/>
<path d="M1510 2900 c0 -5 4 -10 9 -10 6 0 13 5 16 10 3 6 -1 10 -9 10 -9 0
-16 -4 -16 -10z"/>
<path d="M2305 2890 c-30 -6 -29 -6 10 -12 22 -3 51 -9 65 -13 16 -5 21 -4 15
2 -20 19 -61 29 -90 23z"/>
<path d="M1606 2882 c-6 -9 72 -8 81 2 4 3 -12 6 -35 6 -22 0 -43 -4 -46 -8z"/>
<path d="M2408 2883 c7 -3 16 -2 19 1 4 3 -2 6 -13 5 -11 0 -14 -3 -6 -6z"/>
<path d="M2455 2870 l-30 -8 33 -1 c17 0 32 4 32 9 0 6 -1 9 -2 9 -2 -1 -16
-5 -33 -9z"/>
<path d="M1490 2859 c-20 -6 -17 -7 18 -8 23 -1 42 1 42 3 0 9 -37 12 -60 5z"/>
<path d="M1635 2860 c-4 -6 3 -10 14 -10 25 0 27 6 6 13 -8 4 -17 2 -20 -3z"/>
<path d="M1698 2863 c7 -3 16 -2 19 1 4 3 -2 6 -13 5 -11 0 -14 -3 -6 -6z"/>
<path d="M1224 2663 c6 -7 41 -10 126 -14 14 0 32 -5 42 -10 21 -11 48 -2 48
17 0 11 -23 14 -112 14 -61 0 -108 -3 -104 -7z"/>
<path d="M1199 2639 c-10 -6 -7 -9 14 -9 29 0 35 5 14 13 -8 3 -20 1 -28 -4z"/>
<path d="M1360 2590 c-24 -8 -23 -8 8 -9 20 -1 31 3 27 9 -3 6 -7 10 -8 9 -1
-1 -13 -5 -27 -9z"/>
<path d="M1253 2563 c9 -2 25 -2 35 0 9 3 1 5 -18 5 -19 0 -27 -2 -17 -5z"/>
<path d="M1328 2560 c13 -6 35 -7 48 -4 14 4 24 2 24 -4 0 -6 -8 -12 -17 -15
-10 -2 -1 -4 20 -4 30 -1 37 2 35 16 -3 13 -17 16 -68 18 -50 2 -60 0 -42 -7z"/>
<path d="M2023 2553 c15 -2 37 -2 50 0 12 2 0 4 -28 4 -27 0 -38 -2 -22 -4z"/>
<path d="M2028 2533 c6 -2 18 -2 25 0 6 3 1 5 -13 5 -14 0 -19 -2 -12 -5z"/>
<path d="M2000 2508 c0 -5 62 -8 137 -8 75 0 134 2 131 5 -8 9 -268 11 -268 3z"/>
<path d="M2033 2483 c9 -2 23 -2 30 0 6 3 -1 5 -18 5 -16 0 -22 -2 -12 -5z"/>
<path d="M2148 2483 c7 -3 16 -2 19 1 4 3 -2 6 -13 5 -11 0 -14 -3 -6 -6z"/>
<path d="M2208 2483 c7 -3 16 -2 19 1 4 3 -2 6 -13 5 -11 0 -14 -3 -6 -6z"/>
<path d="M1268 2433 c6 -2 18 -2 25 0 6 3 1 5 -13 5 -14 0 -19 -2 -12 -5z"/>
<path d="M2033 2433 c9 -2 25 -2 35 0 9 3 1 5 -18 5 -19 0 -27 -2 -17 -5z"/>
<path d="M1390 2411 c0 -5 10 -11 23 -13 12 -3 -20 -5 -72 -6 -128 -3 -129
-12 -2 -12 90 0 102 2 97 16 -3 9 -6 18 -6 20 0 2 -9 4 -20 4 -11 0 -20 -4
-20 -9z"/>
<path d="M1198 2383 c6 -2 18 -2 25 0 6 3 1 5 -13 5 -14 0 -19 -2 -12 -5z"/>
<path d="M2193 2383 c9 -2 23 -2 30 0 6 3 -1 5 -18 5 -16 0 -22 -2 -12 -5z"/>
<path d="M1175 2332 c9 -10 175 -10 169 -1 -3 5 -43 8 -90 8 -47 -1 -82 -4
-79 -7z"/>
<path d="M1415 2330 c3 -5 8 -10 11 -10 2 0 4 5 4 10 0 6 -5 10 -11 10 -5 0
-7 -4 -4 -10z"/>
<path d="M2055 2330 c17 -4 41 -8 55 -8 22 0 22 1 -5 8 -16 4 -41 8 -55 8 -22
0 -22 -1 5 -8z"/>
<path d="M2010 2309 c-10 -6 0 -9 34 -9 54 0 57 4 11 13 -17 3 -37 2 -45 -4z"/>
<path d="M2143 2303 c9 -2 23 -2 30 0 6 3 -1 5 -18 5 -16 0 -22 -2 -12 -5z"/>
<path d="M2004 2279 c-7 -11 57 -11 74 0 9 5 -1 8 -27 8 -23 0 -44 -4 -47 -8z"/>
<path d="M2110 2282 c0 -12 73 -14 90 -2 11 7 0 10 -37 10 -29 0 -53 -4 -53
-8z"/>
<path d="M1778 2273 c7 -3 16 -2 19 1 4 3 -2 6 -13 5 -11 0 -14 -3 -6 -6z"/>
<path d="M1198 2253 c12 -2 32 -2 45 0 12 2 2 4 -23 4 -25 0 -35 -2 -22 -4z"/>
<path d="M1308 2253 c12 -2 30 -2 40 0 9 3 -1 5 -23 4 -22 0 -30 -2 -17 -4z"/>
<path d="M1388 2253 c7 -3 16 -2 19 1 4 3 -2 6 -13 5 -11 0 -14 -3 -6 -6z"/>
<path d="M2010 2250 c7 -5 28 -6 46 -3 17 3 40 0 50 -5 15 -9 7 -11 -39 -10
-32 0 -61 -3 -64 -6 -4 -3 2 -6 13 -7 18 0 18 -1 -1 -9 -15 -6 -9 -9 25 -9 32
0 39 3 25 8 -13 6 5 8 50 8 45 1 59 -2 40 -6 -53 -11 -13 -18 103 -18 67 0
112 4 112 10 0 6 -23 8 -57 5 -32 -2 -74 -1 -93 3 -27 5 -18 7 38 8 40 0 71 5
68 9 -3 4 -40 7 -83 6 -111 -4 -137 10 -33 17 70 5 59 6 -64 6 -82 1 -143 -3
-136 -7z"/>
<path d="M2318 2253 c12 -2 32 -2 45 0 12 2 2 4 -23 4 -25 0 -35 -2 -22 -4z"/>
<path d="M2428 2253 c12 -2 30 -2 40 0 9 3 -1 5 -23 4 -22 0 -30 -2 -17 -4z"/>
<path d="M2508 2253 c7 -3 16 -2 19 1 4 3 -2 6 -13 5 -11 0 -14 -3 -6 -6z"/>
<path d="M2585 2247 c-27 -4 -60 -8 -72 -8 -13 -1 -23 -6 -23 -11 0 -6 17 -8
43 -4 23 3 104 8 180 12 76 4 139 10 142 14 6 9 -208 7 -270 -3z"/>
<path d="M2935 2250 c-3 -5 -1 -10 4 -10 6 0 11 5 11 10 0 6 -2 10 -4 10 -3 0
-8 -4 -11 -10z"/>
<path d="M2987 2249 c7 -7 15 -10 18 -7 3 3 -2 9 -12 12 -14 6 -15 5 -6 -5z"/>
<path d="M3028 2253 c7 -3 16 -2 19 1 4 3 -2 6 -13 5 -11 0 -14 -3 -6 -6z"/>
<path d="M3078 2253 c12 -2 30 -2 40 0 9 3 -1 5 -23 4 -22 0 -30 -2 -17 -4z"/>
<path d="M3146 2252 c-3 -5 10 -6 29 -4 18 2 42 -1 52 -7 15 -10 13 -11 -17
-10 -69 2 -204 -4 -175 -8 16 -3 33 -10 37 -16 6 -9 8 -9 8 1 0 7 14 12 38 11
33 -1 34 -2 12 -9 -20 -6 -14 -8 25 -8 35 -1 44 2 30 7 -13 6 2 8 45 9 46 0
58 -2 40 -8 -32 -10 -28 -11 44 -16 34 -2 63 -9 68 -16 6 -10 8 -9 8 4 0 12
-13 20 -42 26 l-43 10 50 2 50 2 -40 8 c-22 5 -48 6 -57 4 -10 -3 -28 -2 -40
3 -17 6 -3 9 52 14 65 5 59 5 -47 7 -68 0 -125 -2 -127 -6z"/>
<path d="M1417 2238 c-5 -3 -47 -4 -93 -1 -51 2 -84 0 -89 -6 -8 -14 220 -10
234 4 11 11 -34 14 -52 3z"/>
<path d="M1708 2243 c7 -3 16 -2 19 1 4 3 -2 6 -13 5 -11 0 -14 -3 -6 -6z"/>
<path d="M2355 2230 c-4 -6 8 -10 29 -10 19 0 38 5 41 10 4 6 -8 10 -29 10
-19 0 -38 -4 -41 -10z"/>
<path d="M1757 2223 c18 -2 50 -2 70 0 21 2 7 4 -32 4 -38 0 -55 -2 -38 -4z"/>
<path d="M1908 2223 c6 -2 18 -2 25 0 6 3 1 5 -13 5 -14 0 -19 -2 -12 -5z"/>
<path d="M1968 2223 c7 -3 16 -2 19 1 4 3 -2 6 -13 5 -11 0 -14 -3 -6 -6z"/>
<path d="M2448 2223 c6 -2 18 -2 25 0 6 3 1 5 -13 5 -14 0 -19 -2 -12 -5z"/>
<path d="M2655 2220 c-3 -5 20 -9 60 -9 36 1 63 5 59 10 -7 12 -111 12 -119
-1z"/>
<path d="M2900 2220 c36 -4 72 -3 80 1 8 5 -20 8 -65 7 l-80 -1 65 -7z"/>
<path d="M1284 2199 c-5 -8 12 -10 59 -7 36 3 71 2 78 -3 8 -5 -4 -9 -31 -12
l-45 -4 48 -1 c48 -2 61 10 30 26 -26 14 -131 14 -139 1z"/>
<path d="M2405 2200 c-4 -6 11 -10 40 -10 25 0 44 4 41 8 -7 12 -74 14 -81 2z"/>
<path d="M2769 2199 c-10 -6 -4 -9 19 -9 17 0 32 2 32 4 0 9 -39 13 -51 5z"/>
<path d="M2970 2200 c-12 -8 -12 -10 5 -10 11 0 27 5 35 10 12 8 12 10 -5 10
-11 0 -27 -5 -35 -10z"/>
<path d="M2606 2192 c5 -5 38 -6 74 -2 l65 7 -74 1 c-41 1 -71 -2 -65 -6z"/>
<path d="M2850 2190 c22 -7 20 -8 -14 -9 -70 -2 -30 -13 58 -16 48 -1 89 1 92
6 3 5 -21 10 -53 10 -51 1 -54 2 -23 9 30 6 26 7 -25 8 -44 0 -53 -2 -35 -8z"/>
<path d="M2510 2180 l-45 -7 40 -1 c22 0 49 3 60 8 23 10 9 10 -55 0z"/>
<path d="M3070 2179 c-22 -4 -3 -6 50 -7 83 0 90 4 20 10 -19 2 -51 0 -70 -3z"/>
<path d="M1223 2173 c20 -2 54 -2 75 0 20 2 3 4 -38 4 -41 0 -58 -2 -37 -4z"/>
<path d="M1720 2170 c0 -5 5 -10 11 -10 5 0 7 5 4 10 -3 6 -8 10 -11 10 -2 0
-4 -4 -4 -10z"/>
<path d="M1765 2170 c3 -5 14 -10 23 -10 15 0 15 2 2 10 -20 13 -33 13 -25 0z"/>
<path d="M1988 2173 c17 -2 47 -2 65 0 17 2 3 4 -33 4 -36 0 -50 -2 -32 -4z"/>
<path d="M2115 2170 c-3 -5 -30 -10 -58 -10 -42 -1 -48 -3 -33 -11 10 -6 34
-9 53 -6 19 3 42 3 51 -1 14 -5 13 -7 -8 -13 -25 -7 -25 -7 -2 -8 13 -1 36 9
50 20 26 21 26 22 4 16 -13 -3 -31 -3 -40 1 -12 5 -4 9 23 13 l40 6 -37 2
c-20 0 -40 -3 -43 -9z"/>
<path d="M2333 2173 c15 -2 39 -2 55 0 15 2 2 4 -28 4 -30 0 -43 -2 -27 -4z"/>
<path d="M2428 2173 c7 -3 16 -2 19 1 4 3 -2 6 -13 5 -11 0 -14 -3 -6 -6z"/>
<path d="M2655 2170 l-90 -6 113 -2 c69 -1 112 2 112 8 0 6 -10 9 -22 8 -13
-1 -63 -5 -113 -8z"/>
<path d="M3008 2173 c7 -3 16 -2 19 1 4 3 -2 6 -13 5 -11 0 -14 -3 -6 -6z"/>
<path d="M3235 2170 c-3 -5 -30 -10 -58 -10 -42 -1 -48 -3 -33 -11 10 -6 34
-9 53 -6 19 3 42 3 51 -1 14 -5 13 -7 -8 -13 -25 -7 -25 -7 -2 -8 13 -1 36 9
50 20 l27 22 -28 -7 c-15 -4 -33 -3 -40 1 -7 5 4 10 28 14 l40 6 -37 2 c-20 0
-40 -3 -43 -9z"/>
<path d="M3348 2173 c7 -3 16 -2 19 1 4 3 -2 6 -13 5 -11 0 -14 -3 -6 -6z"/>
<path d="M1305 2149 c-29 -6 -28 -7 10 -9 35 -2 37 -3 15 -10 -18 -6 -5 -8 45
-9 68 -1 69 -1 41 14 -16 9 -31 13 -34 10 -3 -3 1 -5 8 -5 7 0 10 -3 7 -6 -4
-4 -12 -2 -19 3 -21 16 -41 20 -73 12z"/>
<path d="M2194 2142 c-10 -15 -6 -17 25 -19 28 -1 31 1 16 7 -16 7 -14 9 14 9
42 1 32 15 -13 18 -21 1 -36 -4 -42 -15z"/>
<path d="M2425 2149 c-27 -6 -26 -7 15 -9 35 -1 41 -3 25 -10 -13 -6 2 -8 47
-6 36 1 64 -2 62 -6 -3 -4 4 -8 16 -8 12 0 18 5 15 10 -4 6 6 10 22 10 18 0
24 3 15 9 -7 4 -34 4 -60 0 -26 -4 -56 -8 -67 -8 -17 -1 -18 1 -5 10 13 9 13
10 0 6 -8 -2 -24 -1 -35 3 -11 3 -33 3 -50 -1z"/>
<path d="M3314 2142 c-10 -15 -6 -17 25 -19 28 -1 31 1 16 7 -17 7 -16 9 9 9
35 1 27 13 -12 17 -18 2 -31 -3 -38 -14z"/>
<path d="M1798 2143 c7 -3 16 -2 19 1 4 3 -2 6 -13 5 -11 0 -14 -3 -6 -6z"/>
<path d="M1888 2143 c12 -2 30 -2 40 0 9 3 -1 5 -23 4 -22 0 -30 -2 -17 -4z"/>
<path d="M2796 2135 c-13 -10 -24 -11 -37 -5 -23 13 -59 13 -59 1 0 -20 39
-22 295 -11 17 0 18 2 5 11 -16 10 36 8 110 -5 l35 -6 -30 14 c-34 17 -135 21
-135 6 0 -5 -9 -10 -21 -10 -11 0 -17 5 -14 10 4 6 -6 10 -22 10 -22 0 -25 -2
-13 -10 11 -7 -3 -10 -45 -9 -43 0 -54 3 -40 9 13 6 15 9 5 9 -8 0 -23 -6 -34
-14z"/>
<path d="M2858 2143 c7 -3 16 -2 19 1 4 3 -2 6 -13 5 -11 0 -14 -3 -6 -6z"/>
<path d="M1239 2118 c23 -6 37 -6 44 1 8 8 -2 11 -33 10 l-45 -1 34 -10z"/>
<path d="M1758 2123 c6 -2 18 -2 25 0 6 3 1 5 -13 5 -14 0 -19 -2 -12 -5z"/>
<path d="M2273 2123 c9 -2 23 -2 30 0 6 3 -1 5 -18 5 -16 0 -22 -2 -12 -5z"/>
<path d="M2359 2118 c23 -6 37 -6 44 1 8 8 -2 11 -33 10 l-45 -1 34 -10z"/>
<path d="M2658 2113 c6 -2 18 -2 25 0 6 3 1 5 -13 5 -14 0 -19 -2 -12 -5z"/>
<path d="M1230 2100 c0 -6 7 -10 15 -10 8 0 15 2 15 4 0 2 -7 6 -15 10 -8 3
-15 1 -15 -4z"/>
<path d="M1330 2100 c0 -5 8 -11 18 -13 13 -4 12 -5 -5 -6 -12 0 -25 4 -28 9
-10 16 -25 12 -19 -5 4 -10 20 -15 51 -15 38 0 43 2 34 14 -14 16 -51 28 -51
16z"/>
<path d="M1412 2101 c-10 -6 -10 -10 2 -20 10 -9 16 -9 21 -1 10 16 -7 31 -23
21z"/>
<path d="M1945 2100 c-2 -3 31 -7 73 -8 45 0 78 -5 80 -11 2 -6 16 -11 30 -11
27 0 27 0 -7 21 -26 16 -48 20 -102 18 -39 -1 -72 -5 -74 -9z"/>
<path d="M2145 2100 c-3 -5 1 -10 9 -10 8 0 18 5 21 10 3 6 -1 10 -9 10 -8 0
-18 -4 -21 -10z"/>
<path d="M2200 2100 c0 -5 5 -10 11 -10 5 0 7 5 4 10 -3 6 -8 10 -11 10 -2 0
-4 -4 -4 -10z"/>
<path d="M2270 2100 c8 -5 22 -9 30 -9 10 0 8 3 -5 9 -27 12 -43 12 -25 0z"/>
<path d="M2520 2090 c16 -12 39 -14 107 -10 98 6 149 0 98 -11 -21 -5 -10 -7
35 -7 48 1 56 2 30 7 -55 10 -22 19 65 19 44 0 143 1 220 2 95 2 140 -1 143
-9 2 -6 16 -11 30 -10 l27 1 -27 11 c-16 6 -28 15 -28 20 0 5 -73 6 -177 3
-389 -14 -493 -16 -493 -8 0 4 -11 7 -25 7 -24 0 -24 0 -5 -15z"/>
<path d="M3265 2100 c-3 -5 1 -10 10 -10 9 0 13 -4 10 -10 -4 -6 15 -9 52 -8
58 2 58 2 10 5 -30 3 -50 10 -54 19 -6 16 -19 18 -28 4z"/>
<path d="M1773 2093 c9 -2 25 -2 35 0 9 3 1 5 -18 5 -19 0 -27 -2 -17 -5z"/>
<path d="M1863 2093 c15 -2 37 -2 50 0 12 2 0 4 -28 4 -27 0 -38 -2 -22 -4z"/>
<path d="M2358 2093 c7 -3 16 -2 19 1 4 3 -2 6 -13 5 -11 0 -14 -3 -6 -6z"/>
<path d="M2412 2088 c3 -8 26 -14 54 -16 46 -3 48 -2 29 12 -11 9 -27 15 -35
15 -10 0 -8 -3 5 -9 19 -8 19 -9 -2 -9 -12 -1 -25 4 -28 9 -9 14 -27 12 -23
-2z"/>
<path d="M1198 2073 c6 -2 18 -2 25 0 6 3 1 5 -13 5 -14 0 -19 -2 -12 -5z"/>
<path d="M2013 2073 c9 -2 25 -2 35 0 9 3 1 5 -18 5 -19 0 -27 -2 -17 -5z"/>
<path d="M2213 2073 c98 -7 62 -18 -44 -15 -69 3 -105 0 -113 -8 -16 -18 521
-9 549 8 17 11 11 12 -35 6 -100 -13 -290 -10 -290 4 0 8 -18 11 -62 10 l-63
-2 58 -3z"/>
<path d="M2318 2073 c6 -2 18 -2 25 0 6 3 1 5 -13 5 -14 0 -19 -2 -12 -5z"/>
<path d="M2936 2068 c7 -10 124 -10 124 0 0 4 -29 7 -64 7 -35 0 -62 -3 -60
-7z"/>
<path d="M3128 2073 c12 -2 30 -2 40 0 9 3 -1 5 -23 4 -22 0 -30 -2 -17 -4z"/>
<path d="M1868 2063 c6 -2 18 -2 25 0 6 3 1 5 -13 5 -14 0 -19 -2 -12 -5z"/>
<path d="M2848 2063 c12 -2 32 -2 45 0 12 2 2 4 -23 4 -25 0 -35 -2 -22 -4z"/>
<path d="M2000 2050 c0 -5 5 -10 11 -10 5 0 7 5 4 10 -3 6 -8 10 -11 10 -2 0
-4 -4 -4 -10z"/>
<path d="M3105 2050 c3 -5 13 -10 21 -10 8 0 12 5 9 10 -3 6 -13 10 -21 10 -8
0 -12 -4 -9 -10z"/>
<path d="M3170 2050 c0 -6 40 -10 110 -10 61 0 110 4 110 9 0 5 -49 9 -110 10
-71 1 -110 -2 -110 -9z"/>
<path d="M2908 2043 c7 -3 16 -2 19 1 4 3 -2 6 -13 5 -11 0 -14 -3 -6 -6z"/>
<path d="M2960 2035 c14 -17 12 -17 -50 -17 l-35 0 35 -7 c19 -3 48 -2 63 4
25 9 26 11 10 22 -23 18 -38 16 -23 -2z"/>
<path d="M3008 2043 c7 -3 16 -2 19 1 4 3 -2 6 -13 5 -11 0 -14 -3 -6 -6z"/>
<path d="M2608 2033 c7 -3 16 -2 19 1 4 3 -2 6 -13 5 -11 0 -14 -3 -6 -6z"/>
<path d="M1143 2023 c9 -2 23 -2 30 0 6 3 -1 5 -18 5 -16 0 -22 -2 -12 -5z"/>
<path d="M1214 2023 c8 -8 81 -10 101 -3 12 4 -7 7 -43 7 -34 0 -60 -2 -58 -4z"/>
<path d="M1380 2020 c27 -8 18 -15 -30 -23 -14 -3 -5 -5 20 -5 25 0 59 -2 75
-6 l30 -6 -28 11 c-18 7 -26 16 -23 25 4 11 -4 14 -32 13 -33 -1 -34 -2 -12
-9z"/>
<path d="M1993 2023 c15 -2 37 -2 50 0 12 2 0 4 -28 4 -27 0 -38 -2 -22 -4z"/>
<path d="M2080 2020 c0 -13 11 -13 30 0 12 8 11 10 -7 10 -13 0 -23 -4 -23
-10z"/>
<path d="M2140 2024 c37 -8 88 -9 84 -2 -3 4 -26 7 -52 7 -26 -1 -40 -3 -32
-5z"/>
<path d="M2368 2023 c7 -3 16 -2 19 1 4 3 -2 6 -13 5 -11 0 -14 -3 -6 -6z"/>
<path d="M2410 2020 c-18 -12 -2 -12 25 0 13 6 15 9 5 9 -8 0 -22 -4 -30 -9z"/>
<path d="M2500 2020 c27 -8 18 -15 -30 -23 -14 -3 -2 -4 27 -4 29 1 47 5 40 9
-9 6 -8 10 3 18 11 7 5 9 -25 9 -34 -1 -36 -2 -15 -9z"/>
<path d="M2620 2020 c-53 -5 -42 -7 59 -8 68 -1 122 0 120 2 -9 8 -118 11
-179 6z"/>
<path d="M2810 2018 c0 -4 14 -8 30 -8 17 0 30 2 30 4 0 2 -13 6 -30 8 -16 3
-30 1 -30 -4z"/>
<path d="M3025 2020 c-11 -4 17 -5 65 -3 47 3 87 7 89 9 8 8 -135 2 -154 -6z"/>
<path d="M3200 2020 c0 -13 11 -13 30 0 12 8 11 10 -7 10 -13 0 -23 -4 -23
-10z"/>
<path d="M3273 2023 c15 -2 37 -2 50 0 12 2 0 4 -28 4 -27 0 -38 -2 -22 -4z"/>
<path d="M1778 2013 c7 -3 16 -2 19 1 4 3 -2 6 -13 5 -11 0 -14 -3 -6 -6z"/>
<path d="M2010 1999 c-20 -6 -17 -7 18 -8 23 -1 42 1 42 3 0 9 -37 12 -60 5z"/>
<path d="M2225 2000 c-18 -7 75 -13 159 -10 60 2 37 10 -30 11 -38 0 -78 2
-89 4 -11 2 -29 0 -40 -5z"/>
<path d="M3135 1999 c-15 -6 -11 -8 18 -8 20 -1 37 1 37 3 0 9 -37 12 -55 5z"/>
<path d="M3345 2000 c-25 -10 137 -18 180 -9 19 5 0 7 -52 8 -45 1 -87 3 -95
5 -7 3 -22 1 -33 -4z"/>
<path d="M2136 1984 c-5 -13 -3 -14 6 -6 7 5 24 12 38 15 22 4 21 4 -6 6 -21
1 -34 -5 -38 -15z"/>
<path d="M3256 1984 c-5 -13 -3 -14 6 -6 7 5 24 12 38 15 22 4 21 4 -6 6 -21
1 -34 -5 -38 -15z"/>
<path d="M3583 1993 c9 -2 25 -2 35 0 9 3 1 5 -18 5 -19 0 -27 -2 -17 -5z"/>
<path d="M3648 1993 c7 -3 16 -2 19 1 4 3 -2 6 -13 5 -11 0 -14 -3 -6 -6z"/>
<path d="M1500 1974 c-16 -8 -19 -14 -9 -14 8 0 24 7 35 15 24 18 7 18 -26 -1z"/>
<path d="M2568 1983 c6 -2 18 -2 25 0 6 3 1 5 -13 5 -14 0 -19 -2 -12 -5z"/>
<path d="M2630 1980 c0 -5 -7 -10 -15 -10 -8 0 -15 -5 -15 -10 0 -6 14 -3 33
6 42 22 44 24 19 24 -12 0 -22 -4 -22 -10z"/>
<path d="M1127 1973 c-3 -5 10 -8 28 -8 18 0 31 3 28 8 -2 4 -15 7 -28 7 -13
0 -26 -3 -28 -7z"/>
<path d="M1295 1970 c-15 -6 -11 -7 17 -7 23 1 33 4 25 9 -14 9 -16 9 -42 -2z"/>
<path d="M1878 1973 c7 -3 16 -2 19 1 4 3 -2 6 -13 5 -11 0 -14 -3 -6 -6z"/>
<path d="M1918 1972 c12 -8 72 -4 72 4 0 2 -19 4 -42 4 -26 0 -38 -4 -30 -8z"/>
<path d="M2268 1973 c7 -3 16 -2 19 1 4 3 -2 6 -13 5 -11 0 -14 -3 -6 -6z"/>
<path d="M3058 1973 c12 -2 30 -2 40 0 9 3 -1 5 -23 4 -22 0 -30 -2 -17 -4z"/>
<path d="M3403 1968 c18 -6 32 -7 38 -1 5 5 -6 9 -28 10 -37 0 -38 0 -10 -9z"/>
<path d="M3530 1970 c-23 -7 -23 -8 -3 -9 12 -1 25 4 28 9 3 6 5 10 3 9 -2 -1
-14 -5 -28 -9z"/>
<path d="M1314 1935 c32 -17 48 -20 26 -4 -10 7 25 8 115 5 111 -4 118 -3 45
4 -47 4 -114 8 -150 9 -64 1 -64 1 -36 -14z"/>
<path d="M1683 1942 c-6 -4 151 -6 349 -5 199 2 363 5 366 8 8 8 -702 6 -715
-3z"/>
<path d="M2495 1939 c50 -4 117 -7 150 -6 53 0 50 1 -25 8 -47 4 -114 7 -150
6 -60 0 -58 -1 25 -8z"/>
<path d="M2717 1939 c7 -7 15 -10 18 -7 3 3 -2 9 -12 12 -14 6 -15 5 -6 -5z"/>
<path d="M2797 1943 c-3 -5 127 -7 288 -5 175 2 307 0 329 -6 20 -6 36 -7 36
-2 0 5 17 11 38 13 20 2 -126 4 -325 5 -199 1 -364 -1 -366 -5z"/>
<path d="M3554 1935 c18 -9 32 -12 35 -6 4 5 24 11 46 14 24 2 10 4 -35 5 -73
2 -74 1 -46 -13z"/>
<path d="M894 1918 c3 -10 0 -18 -6 -18 -6 0 -8 -3 -4 -7 3 -4 28 -6 55 -4 32
1 53 -3 63 -12 10 -11 19 -12 32 -5 9 5 24 7 34 5 11 -3 9 -5 -8 -6 -25 -2
-25 -2 -5 -18 20 -15 19 -15 -5 -9 -14 3 -38 6 -55 6 -23 0 -27 3 -15 10 11 7
0 10 -36 10 -37 0 -54 -4 -58 -15 -3 -10 1 -15 13 -15 11 0 28 -3 38 -7 14 -6
8 -9 -22 -14 -28 -4 -14 -7 48 -8 62 -1 86 2 81 10 -5 8 -1 8 14 0 26 -14 105
-15 97 -1 -4 6 12 10 42 10 38 1 44 3 30 11 -10 6 -28 10 -40 9 -40 -4 -112 2
-93 7 15 4 16 7 5 14 -9 6 2 9 34 9 26 0 47 5 47 10 0 12 7 11 -135 12 -69 0
-95 3 -70 7 32 5 36 8 21 14 -10 4 -35 2 -54 -4 -28 -9 -36 -9 -44 2 -8 11 -9
10 -4 -3z m54 -65 c-10 -2 -26 -2 -35 0 -10 3 -2 5 17 5 19 0 27 -2 18 -5z
m57 -23 c3 -5 -3 -10 -14 -10 -11 0 -23 5 -26 10 -3 6 3 10 14 10 11 0 23 -4
26 -10z"/>
<path d="M1040 1921 c0 -12 98 -12 106 0 3 5 -20 9 -50 9 -31 0 -56 -4 -56 -9z"/>
<path d="M3340 1920 c0 -5 7 -10 16 -10 8 0 12 5 9 10 -3 6 -10 10 -16 10 -5
0 -9 -4 -9 -10z"/>
<path d="M3600 1926 c0 -2 9 -6 20 -9 11 -3 20 -1 20 4 0 5 -9 9 -20 9 -11 0
-20 -2 -20 -4z"/>
<path d="M1580 1910 c0 -5 5 -10 11 -10 5 0 7 5 4 10 -3 6 -8 10 -11 10 -2 0
-4 -4 -4 -10z"/>
<path d="M1698 1913 c6 -2 18 -2 25 0 6 3 1 5 -13 5 -14 0 -19 -2 -12 -5z"/>
<path d="M1768 1913 c7 -3 16 -2 19 1 4 3 -2 6 -13 5 -11 0 -14 -3 -6 -6z"/>
<path d="M1853 1913 c9 -2 23 -2 30 0 6 3 -1 5 -18 5 -16 0 -22 -2 -12 -5z"/>
<path d="M2068 1913 c7 -3 16 -2 19 1 4 3 -2 6 -13 5 -11 0 -14 -3 -6 -6z"/>
<path d="M2228 1913 c7 -3 16 -2 19 1 4 3 -2 6 -13 5 -11 0 -14 -3 -6 -6z"/>
<path d="M2695 1910 c-3 -5 1 -10 10 -10 9 0 13 5 10 10 -3 6 -8 10 -10 10 -2
0 -7 -4 -10 -10z"/>
<path d="M2743 1913 c9 -2 23 -2 30 0 6 3 -1 5 -18 5 -16 0 -22 -2 -12 -5z"/>
<path d="M2818 1913 c6 -2 18 -2 25 0 6 3 1 5 -13 5 -14 0 -19 -2 -12 -5z"/>
<path d="M2968 1913 c6 -2 18 -2 25 0 6 3 1 5 -13 5 -14 0 -19 -2 -12 -5z"/>
<path d="M3188 1913 c7 -3 16 -2 19 1 4 3 -2 6 -13 5 -11 0 -14 -3 -6 -6z"/>
<path d="M1980 1899 c-47 -4 -41 -6 48 -10 56 -2 102 -1 102 3 0 9 -87 14
-150 7z"/>
<path d="M3100 1899 c-48 -5 -42 -6 40 -8 52 -1 107 -4 123 -6 15 -2 27 0 27
5 0 11 -119 17 -190 9z"/>
<path d="M1202 1895 c7 -8 238 -10 238 -3 0 4 -54 7 -121 7 -67 0 -119 -2
-117 -4z"/>
<path d="M1635 1890 l-40 -7 48 -2 c30 0 46 3 42 9 -3 6 -7 9 -8 9 -1 -1 -20
-5 -42 -9z"/>
<path d="M1730 1889 c-12 -8 -11 -9 5 -5 11 3 35 2 53 -3 17 -5 32 -6 32 -1 0
4 9 6 20 3 11 -3 20 0 20 6 0 14 -110 15 -130 0z"/>
<path d="M2140 1896 c0 -2 7 -7 16 -10 8 -3 12 -2 9 4 -6 10 -25 14 -25 6z"/>
<path d="M2198 1893 c7 -3 16 -2 19 1 4 3 -2 6 -13 5 -11 0 -14 -3 -6 -6z"/>
<path d="M2235 1890 c-3 -5 7 -8 25 -7 16 1 30 5 30 10 0 11 -48 9 -55 -3z"/>
<path d="M2343 1893 c15 -2 37 -2 50 0 12 2 0 4 -28 4 -27 0 -38 -2 -22 -4z"/>
<path d="M2425 1895 c23 -8 133 -11 129 -3 -3 4 -35 8 -72 7 -37 0 -62 -2 -57
-4z"/>
<path d="M2750 1890 l-45 -7 53 -1 c33 -1 51 2 47 8 -3 6 -7 9 -8 8 -1 0 -22
-4 -47 -8z"/>
<path d="M2886 1890 c27 -11 95 -10 88 1 -3 5 -29 9 -57 8 -38 0 -46 -2 -31
-9z"/>
<path d="M3315 1892 c9 -9 105 -10 100 -2 -3 5 -28 8 -55 8 -28 -1 -48 -4 -45
-6z"/>
<path d="M3432 1895 c8 -8 238 -11 238 -3 0 5 -55 8 -122 8 -67 0 -119 -2
-116 -5z"/>
<path d="M1495 1880 c-3 -5 1 -10 9 -10 8 0 18 5 21 10 3 6 -1 10 -9 10 -8 0
-18 -4 -21 -10z"/>
<path d="M1548 1883 c6 -2 18 -2 25 0 6 3 1 5 -13 5 -14 0 -19 -2 -12 -5z"/>
<path d="M2610 1880 c-12 -8 -11 -10 7 -10 12 0 25 5 28 10 8 13 -15 13 -35 0z"/>
<path d="M2668 1883 c6 -2 18 -2 25 0 6 3 1 5 -13 5 -14 0 -19 -2 -12 -5z"/>
<path d="M2838 1883 c7 -3 16 -2 19 1 4 3 -2 6 -13 5 -11 0 -14 -3 -6 -6z"/>
<path d="M1900 1870 c-24 -8 -24 -8 7 -9 17 -1 35 4 38 9 7 11 -9 11 -45 0z"/>
<path d="M3020 1870 c-24 -8 -23 -8 8 -9 17 -1 32 4 32 9 0 11 -5 11 -40 0z"/>
<path d="M1158 1863 c7 -3 16 -2 19 1 4 3 -2 6 -13 5 -11 0 -14 -3 -6 -6z"/>
<path d="M1228 1863 c7 -3 16 -2 19 1 4 3 -2 6 -13 5 -11 0 -14 -3 -6 -6z"/>
<path d="M1310 1860 c20 -5 39 -5 45 1 5 5 -8 9 -35 8 l-45 -1 35 -8z"/>
<path d="M1370 1860 c0 -5 7 -7 15 -4 8 4 15 8 15 10 0 2 -7 4 -15 4 -8 0 -15
-4 -15 -10z"/>
<path d="M1638 1863 c6 -2 18 -2 25 0 6 3 1 5 -13 5 -14 0 -19 -2 -12 -5z"/>
<path d="M1753 1863 c9 -2 25 -2 35 0 9 3 1 5 -18 5 -19 0 -27 -2 -17 -5z"/>
<path d="M2063 1863 c9 -2 25 -2 35 0 9 3 1 5 -18 5 -19 0 -27 -2 -17 -5z"/>
<path d="M2170 1859 c0 -5 5 -7 10 -4 6 3 10 8 10 11 0 2 -4 4 -10 4 -5 0 -10
-5 -10 -11z"/>
<path d="M2278 1863 c7 -3 16 -2 19 1 4 3 -2 6 -13 5 -11 0 -14 -3 -6 -6z"/>
<path d="M2348 1863 c7 -3 16 -2 19 1 4 3 -2 6 -13 5 -11 0 -14 -3 -6 -6z"/>
<path d="M2423 1863 c9 -2 25 -2 35 0 9 3 1 5 -18 5 -19 0 -27 -2 -17 -5z"/>
<path d="M2498 1863 c7 -3 16 -2 19 1 4 3 -2 6 -13 5 -11 0 -14 -3 -6 -6z"/>
<path d="M2758 1863 c6 -2 18 -2 25 0 6 3 1 5 -13 5 -14 0 -19 -2 -12 -5z"/>
<path d="M2873 1863 c9 -2 25 -2 35 0 9 3 1 5 -18 5 -19 0 -27 -2 -17 -5z"/>
<path d="M3183 1863 c9 -2 23 -2 30 0 6 3 -1 5 -18 5 -16 0 -22 -2 -12 -5z"/>
<path d="M3290 1860 c0 -5 5 -10 10 -10 6 0 10 5 10 10 0 6 -4 10 -10 10 -5 0
-10 -4 -10 -10z"/>
<path d="M3398 1863 c7 -3 16 -2 19 1 4 3 -2 6 -13 5 -11 0 -14 -3 -6 -6z"/>
<path d="M3458 1863 c7 -3 16 -2 19 1 4 3 -2 6 -13 5 -11 0 -14 -3 -6 -6z"/>
<path d="M3618 1863 c7 -3 16 -2 19 1 4 3 -2 6 -13 5 -11 0 -14 -3 -6 -6z"/>
<path d="M1463 1853 c9 -2 23 -2 30 0 6 3 -1 5 -18 5 -16 0 -22 -2 -12 -5z"/>
<path d="M2583 1853 c9 -2 23 -2 30 0 6 3 -1 5 -18 5 -16 0 -22 -2 -12 -5z"/>
<path d="M2638 1853 c7 -3 16 -2 19 1 4 3 -2 6 -13 5 -11 0 -14 -3 -6 -6z"/>
<path d="M1270 1840 c17 -11 47 -14 36 -3 -3 4 -17 8 -29 10 -17 2 -19 1 -7
-7z"/>
<path d="M1750 1838 c0 -4 16 -8 35 -8 19 0 35 2 35 4 0 2 -16 6 -35 8 -19 2
-35 0 -35 -4z"/>
<path d="M1933 1843 c10 -9 137 -10 137 0 0 4 -32 7 -72 7 -39 0 -68 -3 -65
-7z"/>
<path d="M2091 1846 c2 -2 20 -6 39 -10 25 -4 31 -3 20 4 -14 9 -69 15 -59 6z"/>
<path d="M2225 1840 c3 -5 8 -10 11 -10 2 0 4 5 4 10 0 6 -5 10 -11 10 -5 0
-7 -4 -4 -10z"/>
<path d="M2310 1843 c-8 -4 7 -11 35 -19 28 -7 52 -11 54 -9 3 3 -69 37 -73
34 0 0 -8 -3 -16 -6z"/>
<path d="M2405 1840 c-3 -5 1 -10 10 -10 9 0 13 5 10 10 -3 6 -8 10 -10 10 -2
0 -7 -4 -10 -10z"/>
<path d="M2879 1837 c5 -5 19 -7 32 -5 20 3 19 5 -9 9 -20 3 -29 2 -23 -4z"/>
<path d="M3054 1843 c3 -4 51 -6 106 -5 68 2 100 -1 100 -9 0 -7 -13 -10 -35
-7 -19 2 -35 0 -35 -4 0 -4 21 -8 46 -8 27 0 43 4 39 10 -3 6 4 11 17 11 19 1
18 3 -7 9 -38 10 -241 12 -231 3z"/>
<path d="M3345 1840 c3 -5 8 -10 11 -10 2 0 4 5 4 10 0 6 -5 10 -11 10 -5 0
-7 -4 -4 -10z"/>
<path d="M3400 1840 c-12 -8 -11 -10 7 -10 12 0 25 5 28 10 8 13 -15 13 -35 0z"/>
<path d="M1618 1833 c7 -3 16 -2 19 1 4 3 -2 6 -13 5 -11 0 -14 -3 -6 -6z"/>
<path d="M1658 1833 c6 -2 18 -2 25 0 6 3 1 5 -13 5 -14 0 -19 -2 -12 -5z"/>
<path d="M2738 1833 c7 -3 16 -2 19 1 4 3 -2 6 -13 5 -11 0 -14 -3 -6 -6z"/>
<path d="M2778 1833 c6 -2 18 -2 25 0 6 3 1 5 -13 5 -14 0 -19 -2 -12 -5z"/>
<path d="M3493 1826 c-65 -29 -108 -136 -64 -163 28 -18 103 -26 133 -14 58
22 90 128 51 164 -26 23 -83 29 -120 13z"/>
<path d="M1430 1820 c-18 -12 -2 -12 25 0 13 6 15 9 5 9 -8 0 -22 -4 -30 -9z"/>
<path d="M1867 1818 c2 -5 18 -8 35 -8 17 0 28 3 24 8 -4 4 -20 7 -36 7 -15 0
-26 -3 -23 -7z"/>
<path d="M2200 1820 c0 -6 7 -10 15 -10 8 0 15 2 15 4 0 2 -7 6 -15 10 -8 3
-15 1 -15 -4z"/>
<path d="M2450 1820 l-25 -8 27 -1 c15 -1 30 4 33 9 7 11 0 11 -35 0z"/>
<path d="M2535 1820 c-27 -7 -28 -8 -5 -8 14 0 34 3 45 8 25 11 2 11 -40 0z"/>
<path d="M3005 1820 c-17 -7 -14 -9 13 -9 20 -1 31 3 27 9 -7 12 -13 12 -40 0z"/>
<path d="M3320 1820 c0 -5 5 -10 11 -10 5 0 7 5 4 10 -3 6 -8 10 -11 10 -2 0
-4 -4 -4 -10z"/>
<path d="M3370 1820 c0 -6 7 -10 15 -10 8 0 15 2 15 4 0 2 -7 6 -15 10 -8 3
-15 1 -15 -4z"/>
<path d="M1635 1810 c-4 -6 3 -10 14 -10 25 0 27 6 6 13 -8 4 -17 2 -20 -3z"/>
<path d="M1691 1816 c12 -10 79 -16 79 -6 0 5 -19 10 -42 10 -23 0 -39 -2 -37
-4z"/>
<path d="M1993 1813 c15 -2 37 -2 50 0 12 2 0 4 -28 4 -27 0 -38 -2 -22 -4z"/>
<path d="M2098 1813 c12 -2 32 -2 45 0 12 2 2 4 -23 4 -25 0 -35 -2 -22 -4z"/>
<path d="M2258 1813 c7 -3 16 -2 19 1 4 3 -2 6 -13 5 -11 0 -14 -3 -6 -6z"/>
<path d="M2749 1809 c-10 -6 -7 -9 14 -9 29 0 35 5 14 13 -8 3 -20 1 -28 -4z"/>
<path d="M2811 1816 c2 -2 21 -6 42 -10 27 -5 37 -4 32 3 -3 6 -22 11 -42 11
-20 0 -34 -2 -32 -4z"/>
<path d="M3113 1813 c15 -2 37 -2 50 0 12 2 0 4 -28 4 -27 0 -38 -2 -22 -4z"/>
<path d="M1488 1803 c12 -2 32 -2 45 0 12 2 2 4 -23 4 -25 0 -35 -2 -22 -4z"/>
<path d="M2603 1803 c15 -2 37 -2 50 0 12 2 0 4 -28 4 -27 0 -38 -2 -22 -4z"/>
<path d="M897 1783 c4 -9 14 -12 27 -9 11 3 34 6 49 6 16 0 26 4 22 9 -3 6
-27 9 -54 9 -38 -1 -48 -5 -44 -15z"/>
<path d="M1795 1790 c3 -5 10 -10 16 -10 5 0 9 5 9 10 0 6 -7 10 -16 10 -8 0
-12 -4 -9 -10z"/>
<path d="M1837 1780 c-16 -19 -16 -20 11 -19 15 0 21 3 14 6 -10 4 -10 8 -1
19 6 8 7 14 2 14 -5 0 -16 -9 -26 -20z"/>
<path d="M1915 1790 c-3 -5 1 -10 10 -10 9 0 13 5 10 10 -3 6 -8 10 -10 10 -2
0 -7 -4 -10 -10z"/>
<path d="M2060 1790 l-25 -8 28 -1 c15 -1 27 4 27 9 0 6 -1 10 -2 9 -2 -1 -14
-5 -28 -9z"/>
<path d="M2170 1790 c-12 -8 -9 -10 12 -10 15 0 30 5 33 10 8 13 -25 13 -45 0z"/>
<path d="M2337 1789 c8 -8 16 -8 30 0 16 9 14 10 -11 11 -22 0 -27 -3 -19 -11z"/>
<path d="M2400 1786 c-6 -8 -24 -17 -38 -19 -21 -3 -18 -4 11 -6 23 0 36 3 32
9 -3 6 1 10 9 10 9 0 16 5 16 10 0 15 -16 12 -30 -4z"/>
<path d="M2915 1790 c3 -5 11 -10 16 -10 6 0 7 5 4 10 -3 6 -11 10 -16 10 -6
0 -7 -4 -4 -10z"/>
<path d="M3175 1790 l-30 -8 32 -1 c17 0 35 4 38 9 7 11 3 11 -40 0z"/>
<path d="M3280 1790 c-8 -5 -24 -7 -35 -5 -11 3 -14 2 -7 -1 6 -3 10 -10 6
-15 -3 -5 7 -9 23 -9 22 0 25 2 13 10 -12 8 -8 10 15 11 17 0 41 5 55 9 22 7
20 8 -15 9 -22 0 -47 -4 -55 -9z"/>
<path d="M1230 1783 c-14 -2 -87 -15 -163 -30 -100 -18 -157 -24 -205 -20
-113 9 -148 -23 -137 -126 5 -45 -2 -120 -25 -279 -42 -292 -60 -450 -60 -526
0 -59 3 -66 31 -93 24 -23 41 -29 74 -29 69 0 75 14 76 171 0 74 3 152 7 174
7 36 11 41 56 58 27 10 117 31 200 48 188 37 211 44 236 76 26 34 27 89 1 103
-30 16 -99 12 -177 -9 -80 -23 -252 -61 -271 -61 -17 0 -16 62 1 160 25 137
34 160 69 175 40 16 219 43 349 51 86 5 100 9 123 31 38 39 35 87 -7 113 -32
19 -106 25 -178 13z"/>
<path d="M1540 1780 c0 -5 -8 -7 -17 -3 -15 5 -16 3 -6 -7 9 -9 16 -10 25 -3
7 6 22 13 33 16 15 4 13 5 -7 6 -16 0 -28 -3 -28 -9z"/>
<path d="M1693 1783 c9 -2 23 -2 30 0 6 3 -1 5 -18 5 -16 0 -22 -2 -12 -5z"/>
<path d="M1968 1783 c7 -3 16 -2 19 1 4 3 -2 6 -13 5 -11 0 -14 -3 -6 -6z"/>
<path d="M2288 1783 c7 -3 16 -2 19 1 4 3 -2 6 -13 5 -11 0 -14 -3 -6 -6z"/>
<path d="M2505 1783 c27 -3 55 -9 62 -15 7 -5 18 -6 25 -2 18 12 -25 22 -87
21 l-50 -1 50 -3z"/>
<path d="M2640 1781 c-22 -6 -23 -8 -6 -14 10 -4 24 -3 30 2 6 5 20 11 31 14
16 4 15 5 -5 5 -14 0 -36 -3 -50 -7z"/>
<path d="M2803 1783 c9 -2 25 -2 35 0 9 3 1 5 -18 5 -19 0 -27 -2 -17 -5z"/>
<path d="M3088 1783 c7 -3 16 -2 19 1 4 3 -2 6 -13 5 -11 0 -14 -3 -6 -6z"/>
<path d="M2955 1770 c-4 -6 3 -10 14 -10 25 0 27 6 6 13 -8 4 -17 2 -20 -3z"/>
<path d="M1773 1763 c9 -2 23 -2 30 0 6 3 -1 5 -18 5 -16 0 -22 -2 -12 -5z"/>
<path d="M1893 1763 c9 -2 25 -2 35 0 9 3 1 5 -18 5 -19 0 -27 -2 -17 -5z"/>
<path d="M2138 1763 c6 -2 18 -2 25 0 6 3 1 5 -13 5 -14 0 -19 -2 -12 -5z"/>
<path d="M2218 1763 c7 -3 16 -2 19 1 4 3 -2 6 -13 5 -11 0 -14 -3 -6 -6z"/>
<path d="M2258 1763 c7 -3 16 -2 19 1 4 3 -2 6 -13 5 -11 0 -14 -3 -6 -6z"/>
<path d="M2428 1763 c6 -2 18 -2 25 0 6 3 1 5 -13 5 -14 0 -19 -2 -12 -5z"/>
<path d="M2878 1763 c6 -2 18 -2 25 0 6 3 1 5 -13 5 -14 0 -19 -2 -12 -5z"/>
<path d="M3013 1763 c9 -2 25 -2 35 0 9 3 1 5 -18 5 -19 0 -27 -2 -17 -5z"/>
<path d="M3208 1763 c7 -3 16 -2 19 1 4 3 -2 6 -13 5 -11 0 -14 -3 -6 -6z"/>
<path d="M3328 1763 c6 -2 18 -2 25 0 6 3 1 5 -13 5 -14 0 -19 -2 -12 -5z"/>
<path d="M1565 1740 c-132 -8 -61 -15 95 -9 140 5 155 10 40 13 -30 0 -91 -1
-135 -4z"/>
<path d="M1865 1740 c-3 -5 1 -10 9 -10 9 0 16 5 16 10 0 6 -4 10 -9 10 -6 0
-13 -4 -16 -10z"/>
<path d="M1996 1741 c-3 -5 12 -8 34 -7 22 0 40 4 40 9 0 10 -68 9 -74 -2z"/>
<path d="M2155 1739 c-22 -3 45 -7 149 -8 104 0 187 1 185 4 -8 7 -290 11
-334 4z"/>
<path d="M2510 1738 c0 -8 24 -10 100 -10 187 0 312 3 308 8 -9 8 -408 10
-408 2z"/>
<path d="M3116 1742 c-2 -4 20 -8 51 -8 33 -1 50 2 41 7 -17 11 -85 12 -92 1z"/>
<path d="M3258 1738 c-13 -3 5 -6 45 -7 37 -1 67 2 67 7 0 9 -80 9 -112 0z"/>
<path d="M1828 1733 c7 -3 16 -2 19 1 4 3 -2 6 -13 5 -11 0 -14 -3 -6 -6z"/>
<path d="M1906 1725 c-4 -11 1 -15 17 -14 12 0 16 3 9 6 -6 2 -10 9 -6 14 3 5
1 9 -4 9 -6 0 -12 -7 -16 -15z"/>
<path d="M2988 1733 c7 -3 16 -2 19 1 4 3 -2 6 -13 5 -11 0 -14 -3 -6 -6z"/>
<path d="M3020 1720 c-12 -8 -10 -10 8 -10 13 0 20 4 17 10 -7 12 -6 12 -25 0z"/>
<path d="M2380 1710 c8 -5 20 -10 25 -10 6 0 3 5 -5 10 -8 5 -19 10 -25 10 -5
0 -3 -5 5 -10z"/>
<path d="M2478 1713 c7 -3 16 -2 19 1 4 3 -2 6 -13 5 -11 0 -14 -3 -6 -6z"/>
<path d="M3198 1713 c6 -2 18 -2 25 0 6 3 1 5 -13 5 -14 0 -19 -2 -12 -5z"/>
<path d="M3348 1713 c7 -3 16 -2 19 1 4 3 -2 6 -13 5 -11 0 -14 -3 -6 -6z"/>
<path d="M1513 1703 c9 -2 23 -2 30 0 6 3 -1 5 -18 5 -16 0 -22 -2 -12 -5z"/>
<path d="M1623 1703 c9 -2 23 -2 30 0 6 3 -1 5 -18 5 -16 0 -22 -2 -12 -5z"/>
<path d="M2628 1703 c7 -3 16 -2 19 1 4 3 -2 6 -13 5 -11 0 -14 -3 -6 -6z"/>
<path d="M2738 1703 c6 -2 18 -2 25 0 6 3 1 5 -13 5 -14 0 -19 -2 -12 -5z"/>
<path d="M3698 1703 c7 -3 16 -2 19 1 4 3 -2 6 -13 5 -11 0 -14 -3 -6 -6z"/>
<path d="M3773 1703 c26 -2 67 -2 90 0 23 2 2 3 -48 3 -49 0 -68 -1 -42 -3z"/>
<path d="M4191 1673 c-17 -18 -41 -67 -65 -138 -21 -60 -42 -116 -48 -122 -7
-9 -39 -13 -90 -13 -101 0 -118 -9 -118 -60 0 -47 19 -60 99 -69 30 -3 56 -12
58 -18 6 -17 -184 -206 -277 -276 -87 -65 -134 -87 -185 -87 -32 0 -38 4 -52
38 -24 57 -28 182 -9 298 9 56 16 113 16 127 0 38 -26 59 -64 52 -48 -11 -70
-29 -131 -109 -132 -175 -261 -290 -320 -284 -67 7 -81 105 -44 312 l21 120
-27 24 c-21 17 -35 22 -54 17 -44 -11 -58 -33 -91 -136 -58 -179 -213 -362
-339 -400 -40 -12 -45 -11 -57 6 -26 35 -13 158 31 298 22 67 14 103 -26 126
-22 12 -31 12 -57 2 -59 -24 -104 -180 -106 -361 -1 -103 1 -119 22 -151 84
-136 322 -59 478 154 41 55 44 57 49 33 3 -14 8 -38 11 -53 16 -78 86 -132
170 -133 65 0 157 52 249 142 44 43 80 78 81 78 0 0 4 -35 7 -78 14 -179 100
-292 223 -292 84 0 213 79 345 214 l84 85 0 -107 c0 -122 15 -161 75 -197 53
-30 149 -27 218 9 130 66 240 219 173 241 -28 9 -62 -9 -126 -64 -67 -59 -128
-83 -150 -60 -7 8 -18 31 -23 52 -12 44 -5 99 36 266 32 135 12 122 231 145
166 18 194 29 189 79 -5 55 -37 62 -201 48 -76 -7 -141 -10 -144 -8 -2 3 9 48
26 101 17 53 31 110 31 126 0 55 -73 69 -119 23z"/>
<path d="M1668 1683 c7 -3 16 -2 19 1 4 3 -2 6 -13 5 -11 0 -14 -3 -6 -6z"/>
<path d="M1778 1683 c6 -2 18 -2 25 0 6 3 1 5 -13 5 -14 0 -19 -2 -12 -5z"/>
<path d="M2038 1683 c7 -3 16 -2 19 1 4 3 -2 6 -13 5 -11 0 -14 -3 -6 -6z"/>
<path d="M2188 1683 c7 -3 16 -2 19 1 4 3 -2 6 -13 5 -11 0 -14 -3 -6 -6z"/>
<path d="M2238 1683 c7 -3 16 -2 19 1 4 3 -2 6 -13 5 -11 0 -14 -3 -6 -6z"/>
<path d="M2348 1683 c7 -3 16 -2 19 1 4 3 -2 6 -13 5 -11 0 -14 -3 -6 -6z"/>
<path d="M2448 1683 c7 -3 16 -2 19 1 4 3 -2 6 -13 5 -11 0 -14 -3 -6 -6z"/>
<path d="M2498 1683 c7 -3 16 -2 19 1 4 3 -2 6 -13 5 -11 0 -14 -3 -6 -6z"/>
<path d="M2898 1683 c6 -2 18 -2 25 0 6 3 1 5 -13 5 -14 0 -19 -2 -12 -5z"/>
<path d="M3153 1683 c9 -2 25 -2 35 0 9 3 1 5 -18 5 -19 0 -27 -2 -17 -5z"/>
<path d="M3238 1683 c7 -3 16 -2 19 1 4 3 -2 6 -13 5 -11 0 -14 -3 -6 -6z"/>
<path d="M3293 1683 c15 -2 37 -2 50 0 12 2 0 4 -28 4 -27 0 -38 -2 -22 -4z"/>
<path d="M3671 1679 c8 -5 34 -8 59 -8 53 1 44 6 -24 12 -30 3 -43 1 -35 -4z"/>
<path d="M3799 1683 c-1 -5 -1 -11 0 -15 0 -5 -26 -8 -58 -8 -33 0 -63 -5 -66
-11 -5 -7 12 -9 53 -5 64 6 115 24 106 37 -6 11 -34 12 -35 2z"/>
<path d="M3850 1682 c0 -5 21 -7 48 -4 63 6 45 -11 -21 -19 l-52 -6 63 -2 c56
-1 62 1 62 19 0 17 -7 20 -50 20 -27 0 -50 -4 -50 -8z"/>
<path d="M1488 1673 c6 -2 18 -2 25 0 6 3 1 5 -13 5 -14 0 -19 -2 -12 -5z"/>
<path d="M1640 1660 l-55 -7 68 -1 c43 -1 66 2 62 8 -3 6 -9 9 -13 8 -4 -1
-32 -4 -62 -8z"/>
<path d="M1800 1660 c-13 -8 -12 -10 3 -10 9 0 17 5 17 10 0 12 -1 12 -20 0z"/>
<path d="M1848 1663 c7 -3 16 -2 19 1 4 3 -2 6 -13 5 -11 0 -14 -3 -6 -6z"/>
<path d="M1993 1663 c15 -2 39 -2 55 0 15 2 2 4 -28 4 -30 0 -43 -2 -27 -4z"/>
<path d="M2208 1663 c7 -3 16 -2 19 1 4 3 -2 6 -13 5 -11 0 -14 -3 -6 -6z"/>
<path d="M2428 1663 c7 -3 16 -2 19 1 4 3 -2 6 -13 5 -11 0 -14 -3 -6 -6z"/>
<path d="M2810 1660 c0 -5 5 -10 10 -10 6 0 10 5 10 10 0 6 -4 10 -10 10 -5 0
-10 -4 -10 -10z"/>
<path d="M2920 1660 c-9 -6 -10 -10 -3 -10 6 0 15 5 18 10 8 12 4 12 -15 0z"/>
<path d="M2968 1663 c7 -3 16 -2 19 1 4 3 -2 6 -13 5 -11 0 -14 -3 -6 -6z"/>
<path d="M3113 1663 c15 -2 39 -2 55 0 15 2 2 4 -28 4 -30 0 -43 -2 -27 -4z"/>
<path d="M3263 1663 c9 -2 23 -2 30 0 6 3 -1 5 -18 5 -16 0 -22 -2 -12 -5z"/>
<path d="M3328 1663 c7 -3 16 -2 19 1 4 3 -2 6 -13 5 -11 0 -14 -3 -6 -6z"/>
<path d="M1513 1653 c9 -2 25 -2 35 0 9 3 1 5 -18 5 -19 0 -27 -2 -17 -5z"/>
<path d="M2733 1653 c9 -2 23 -2 30 0 6 3 -1 5 -18 5 -16 0 -22 -2 -12 -5z"/>
<path d="M1560 1609 l-35 -6 40 -3 c67 -3 146 1 169 10 25 9 -120 8 -174 -1z"/>
<path d="M1778 1613 c7 -3 16 -2 19 1 4 3 -2 6 -13 5 -11 0 -14 -3 -6 -6z"/>
<path d="M1810 1610 c0 -5 12 -10 28 -10 21 0 24 2 12 10 -20 13 -40 13 -40 0z"/>
<path d="M1933 1613 c20 -2 54 -2 75 0 20 2 3 4 -38 4 -41 0 -58 -2 -37 -4z"/>
<path d="M2073 1613 c9 -2 23 -2 30 0 6 3 -1 5 -18 5 -16 0 -22 -2 -12 -5z"/>
<path d="M2143 1613 c15 -2 37 -2 50 0 12 2 0 4 -28 4 -27 0 -38 -2 -22 -4z"/>
<path d="M2238 1613 c6 -2 18 -2 25 0 6 3 1 5 -13 5 -14 0 -19 -2 -12 -5z"/>
<path d="M2368 1613 c12 -2 32 -2 45 0 12 2 2 4 -23 4 -25 0 -35 -2 -22 -4z"/>
<path d="M2483 1613 c9 -2 23 -2 30 0 6 3 -1 5 -18 5 -16 0 -22 -2 -12 -5z"/>
<path d="M2800 1610 c-24 -8 -24 -8 5 -9 17 0 37 4 45 9 12 8 11 10 -5 9 -11
-1 -31 -5 -45 -9z"/>
<path d="M2910 1610 c14 -4 36 -8 50 -8 23 -1 23 0 5 8 -11 5 -33 8 -50 8 -29
0 -29 0 -5 -8z"/>
<path d="M3058 1613 c23 -2 59 -2 80 0 20 2 1 4 -43 4 -44 0 -61 -2 -37 -4z"/>
<path d="M3181 1615 c8 -7 198 -9 206 -2 3 4 -42 7 -102 7 -60 0 -106 -2 -104
-5z"/>
<path d="M3603 1613 c9 -2 23 -2 30 0 6 3 -1 5 -18 5 -16 0 -22 -2 -12 -5z"/>
<path d="M3666 1603 c14 -14 272 -8 288 7 4 5 -61 8 -146 7 -123 -2 -152 -5
-142 -14z"/>
<path d="M1425 1600 c6 -10 95 -8 95 2 0 4 -22 7 -50 6 -27 0 -48 -4 -45 -8z"/>
<path d="M2555 1600 c-3 -5 1 -10 9 -10 9 0 16 5 16 10 0 6 -4 10 -9 10 -6 0
-13 -4 -16 -10z"/>
<path d="M2615 1600 c3 -5 8 -10 11 -10 2 0 4 5 4 10 0 6 -5 10 -11 10 -5 0
-7 -4 -4 -10z"/>
<path d="M2678 1603 c17 -2 47 -2 65 0 17 2 3 4 -33 4 -36 0 -50 -2 -32 -4z"/>
<path d="M3165 1590 c-3 -5 1 -10 10 -10 9 0 13 5 10 10 -3 6 -8 10 -10 10 -2
0 -7 -4 -10 -10z"/>
<path d="M1888 1583 c6 -2 18 -2 25 0 6 3 1 5 -13 5 -14 0 -19 -2 -12 -5z"/>
<path d="M3008 1583 c6 -2 18 -2 25 0 6 3 1 5 -13 5 -14 0 -19 -2 -12 -5z"/>
<path d="M3862 1574 c-13 -11 -64 -13 -232 -10 -118 2 -157 1 -87 -1 70 -2
126 -7 123 -11 -2 -4 18 -7 45 -5 47 2 67 -11 32 -20 -17 -4 -17 -5 0 -6 10 0
20 6 23 14 5 11 24 15 78 16 54 1 64 3 41 9 -22 6 -25 8 -10 10 11 1 27 2 37
1 9 -1 18 2 21 6 9 14 -52 11 -71 -3z"/>
<path d="M3773 1573 c9 -2 25 -2 35 0 9 3 1 5 -18 5 -19 0 -27 -2 -17 -5z"/>
<path d="M1280 1563 c68 -2 129 -8 134 -13 15 -15 26 -12 26 5 0 13 -22 15
-142 13 l-143 -2 125 -3z"/>
<path d="M2138 1563 c7 -3 16 -2 19 1 4 3 -2 6 -13 5 -11 0 -14 -3 -6 -6z"/>
<path d="M2188 1563 c7 -3 16 -2 19 1 4 3 -2 6 -13 5 -11 0 -14 -3 -6 -6z"/>
<path d="M2248 1563 c7 -3 16 -2 19 1 4 3 -2 6 -13 5 -11 0 -14 -3 -6 -6z"/>
<path d="M2318 1563 c17 -2 47 -2 65 0 17 2 3 4 -33 4 -36 0 -50 -2 -32 -4z"/>
<path d="M2448 1563 c12 -2 30 -2 40 0 9 3 -1 5 -23 4 -22 0 -30 -2 -17 -4z"/>
<path d="M2510 1566 c0 -2 11 -6 25 -8 13 -3 22 -1 19 3 -5 9 -44 13 -44 5z"/>
<path d="M3126 1555 c-25 -19 -9 -19 24 0 14 8 19 14 10 14 -8 0 -24 -6 -34
-14z"/>
<path d="M3263 1563 c15 -2 37 -2 50 0 12 2 0 4 -28 4 -27 0 -38 -2 -22 -4z"/>
<path d="M3358 1563 c6 -2 18 -2 25 0 6 3 1 5 -13 5 -14 0 -19 -2 -12 -5z"/>
<path d="M1483 1553 c9 -2 23 -2 30 0 6 3 -1 5 -18 5 -16 0 -22 -2 -12 -5z"/>
<path d="M1573 1553 c9 -2 23 -2 30 0 6 3 -1 5 -18 5 -16 0 -22 -2 -12 -5z"/>
<path d="M1728 1553 c17 -2 47 -2 65 0 17 2 3 4 -33 4 -36 0 -50 -2 -32 -4z"/>
<path d="M2598 1553 c6 -2 18 -2 25 0 6 3 1 5 -13 5 -14 0 -19 -2 -12 -5z"/>
<path d="M2698 1553 c7 -3 16 -2 19 1 4 3 -2 6 -13 5 -11 0 -14 -3 -6 -6z"/>
<path d="M2848 1553 c17 -2 47 -2 65 0 17 2 3 4 -33 4 -36 0 -50 -2 -32 -4z"/>
<path d="M1210 1540 c0 -5 9 -10 20 -10 11 0 20 5 20 10 0 6 -9 10 -20 10 -11
0 -20 -4 -20 -10z"/>
<path d="M1355 1540 c-17 -7 -14 -9 13 -9 20 -1 31 3 27 9 -7 12 -13 12 -40 0z"/>
<path d="M2060 1540 c-19 -6 -14 -8 22 -7 26 1 42 5 35 9 -14 9 -23 9 -57 -2z"/>
<path d="M2345 1540 c-3 -5 -1 -10 4 -10 6 0 11 5 11 10 0 6 -2 10 -4 10 -3 0
-8 -4 -11 -10z"/>
<path d="M3180 1540 c-19 -6 -11 -8 30 -8 37 1 49 3 35 9 -24 9 -33 9 -65 -1z"/>
<path d="M3450 1540 c0 -5 7 -10 15 -10 8 0 15 5 15 10 0 6 -7 10 -15 10 -8 0
-15 -4 -15 -10z"/>
<path d="M3595 1540 c-18 -8 -17 -9 8 -9 16 -1 26 3 22 9 -3 6 -7 10 -8 9 -1
0 -11 -4 -22 -9z"/>
<path d="M1168 1533 c6 -2 18 -2 25 0 6 3 1 5 -13 5 -14 0 -19 -2 -12 -5z"/>
<path d="M1278 1533 c7 -3 16 -2 19 1 4 3 -2 6 -13 5 -11 0 -14 -3 -6 -6z"/>
<path d="M3888 1533 c7 -3 16 -2 19 1 4 3 -2 6 -13 5 -11 0 -14 -3 -6 -6z"/>
<path d="M1558 1523 c7 -3 16 -2 19 1 4 3 -2 6 -13 5 -11 0 -14 -3 -6 -6z"/>
<path d="M3788 1523 c6 -2 18 -2 25 0 6 3 1 5 -13 5 -14 0 -19 -2 -12 -5z"/>
<path d="M3848 1523 c7 -3 16 -2 19 1 4 3 -2 6 -13 5 -11 0 -14 -3 -6 -6z"/>
<path d="M1173 1513 c9 -2 23 -2 30 0 6 3 -1 5 -18 5 -16 0 -22 -2 -12 -5z"/>
<path d="M1330 1510 c8 -6 29 -7 45 -4 24 4 27 3 15 -6 -13 -10 -12 -11 4 -6
10 4 24 3 30 -2 6 -5 21 -3 36 5 25 14 25 14 -7 8 -21 -4 -33 -3 -33 4 0 7
-21 11 -52 11 -38 0 -49 -3 -38 -10z"/>
<path d="M1975 1510 c-3 -5 -2 -10 4 -10 5 0 13 5 16 10 3 6 2 10 -4 10 -5 0
-13 -4 -16 -10z"/>
<path d="M2015 1510 c-3 -5 -1 -10 4 -10 6 0 11 5 11 10 0 6 -2 10 -4 10 -3 0
-8 -4 -11 -10z"/>
<path d="M2440 1516 c0 -9 39 -13 51 -5 10 6 4 9 -18 9 -18 0 -33 -2 -33 -4z"/>
<path d="M2518 1513 c7 -3 16 -2 19 1 4 3 -2 6 -13 5 -11 0 -14 -3 -6 -6z"/>
<path d="M3090 1510 c-13 -8 -13 -10 2 -10 9 0 20 5 23 10 8 13 -5 13 -25 0z"/>
<path d="M3130 1510 c0 -5 5 -10 10 -10 6 0 10 5 10 10 0 6 -4 10 -10 10 -5 0
-10 -4 -10 -10z"/>
<path d="M3175 1510 c3 -5 11 -10 16 -10 6 0 7 5 4 10 -3 6 -11 10 -16 10 -6
0 -7 -4 -4 -10z"/>
<path d="M3328 1513 c7 -3 16 -2 19 1 4 3 -2 6 -13 5 -11 0 -14 -3 -6 -6z"/>
<path d="M3408 1513 c7 -3 16 -2 19 1 4 3 -2 6 -13 5 -11 0 -14 -3 -6 -6z"/>
<path d="M3560 1516 c0 -9 39 -13 51 -5 10 6 4 9 -18 9 -18 0 -33 -2 -33 -4z"/>
<path d="M3648 1504 c12 -8 30 -14 40 -13 29 3 38 -1 23 -10 -9 -6 5 -8 37 -8
33 1 53 6 56 14 7 17 53 17 59 1 4 -10 6 -10 6 0 1 7 17 12 44 12 28 0 37 3
28 9 -16 11 -128 2 -155 -11 -13 -7 -16 -7 -12 1 9 14 0 14 -25 1 -14 -8 -19
-7 -19 1 0 8 -12 10 -35 6 -19 -3 -35 -2 -35 4 0 5 -8 9 -17 9 -14 0 -13 -3 5
-16z"/>
<path d="M1608 1503 c23 -2 59 -2 80 0 20 2 1 4 -43 4 -44 0 -61 -2 -37 -4z"/>
<path d="M1753 1503 c15 -2 37 -2 50 0 12 2 0 4 -28 4 -27 0 -38 -2 -22 -4z"/>
<path d="M2717 1503 c18 -2 50 -2 70 0 21 2 7 4 -32 4 -38 0 -55 -2 -38 -4z"/>
<path d="M1175 1490 c-13 -6 9 -8 64 -5 45 2 86 6 89 9 9 10 -131 5 -153 -4z"/>
<path d="M2250 1488 c0 -5 20 -8 45 -8 25 0 45 3 45 8 0 4 -20 7 -45 7 -25 0
-45 -3 -45 -7z"/>
<path d="M2370 1496 c0 -2 7 -7 16 -10 8 -3 12 -2 9 4 -6 10 -25 14 -25 6z"/>
<path d="M3325 1489 c-28 -4 -15 -7 48 -8 48 0 87 3 87 7 0 10 -75 10 -135 1z"/>
<path d="M3480 1496 c0 -2 9 -6 20 -9 11 -3 18 -1 14 4 -5 9 -34 13 -34 5z"/>
<path d="M3538 1493 c6 -2 18 -2 25 0 6 3 1 5 -13 5 -14 0 -19 -2 -12 -5z"/>
<path d="M1480 1480 c-10 -7 -1 -8 30 -4 56 8 64 14 19 14 -19 0 -41 -5 -49
-10z"/>
<path d="M1758 1483 c7 -3 16 -2 19 1 4 3 -2 6 -13 5 -11 0 -14 -3 -6 -6z"/>
<path d="M1878 1483 c7 -3 16 -2 19 1 4 3 -2 6 -13 5 -11 0 -14 -3 -6 -6z"/>
<path d="M2108 1483 c7 -3 16 -2 19 1 4 3 -2 6 -13 5 -11 0 -14 -3 -6 -6z"/>
<path d="M2188 1483 c12 -2 30 -2 40 0 9 3 -1 5 -23 4 -22 0 -30 -2 -17 -4z"/>
<path d="M2601 1481 c-10 -6 1 -8 30 -4 24 3 46 7 48 9 10 9 -65 3 -78 -5z"/>
<path d="M3223 1483 c9 -2 23 -2 30 0 6 3 -1 5 -18 5 -16 0 -22 -2 -12 -5z"/>
<path d="M3903 1483 c9 -2 25 -2 35 0 9 3 1 5 -18 5 -19 0 -27 -2 -17 -5z"/>
<path d="M1220 1463 c0 -5 50 -8 110 -8 61 0 110 3 110 8 0 4 -49 7 -110 7
-60 0 -110 -3 -110 -7z"/>
<path d="M1976 1462 c-3 -5 8 -6 25 -4 16 2 29 6 29 8 0 8 -49 4 -54 -4z"/>
<path d="M2137 1458 c-7 -4 5 -8 25 -8 20 0 39 4 42 9 6 10 -51 9 -67 -1z"/>
<path d="M2348 1463 c7 -3 16 -2 19 1 4 3 -2 6 -13 5 -11 0 -14 -3 -6 -6z"/>
<path d="M2423 1463 c26 -2 67 -2 90 0 23 2 2 3 -48 3 -49 0 -68 -1 -42 -3z"/>
<path d="M3096 1462 c-3 -5 8 -6 25 -4 16 2 29 6 29 8 0 8 -49 4 -54 -4z"/>
<path d="M3195 1460 c-18 -8 -17 -9 8 -9 16 -1 26 3 22 9 -3 6 -7 10 -8 9 -1
0 -11 -4 -22 -9z"/>
<path d="M3257 1458 c-7 -4 5 -8 25 -8 20 0 39 4 42 9 6 10 -51 9 -67 -1z"/>
<path d="M3513 1463 c32 -2 81 -2 110 0 29 2 3 3 -58 3 -60 0 -84 -1 -52 -3z"/>
<path d="M1168 1453 c7 -3 16 -2 19 1 4 3 -2 6 -13 5 -11 0 -14 -3 -6 -6z"/>
<path d="M1495 1450 c3 -5 12 -7 20 -3 21 7 19 13 -6 13 -11 0 -18 -4 -14 -10z"/>
<path d="M1798 1453 c12 -2 32 -2 45 0 12 2 2 4 -23 4 -25 0 -35 -2 -22 -4z"/>
<path d="M2078 1453 c6 -2 18 -2 25 0 6 3 1 5 -13 5 -14 0 -19 -2 -12 -5z"/>
<path d="M2288 1453 c7 -3 16 -2 19 1 4 3 -2 6 -13 5 -11 0 -14 -3 -6 -6z"/>
<path d="M2628 1453 c7 -3 16 -2 19 1 4 3 -2 6 -13 5 -11 0 -14 -3 -6 -6z"/>
<path d="M2708 1453 c17 -2 47 -2 65 0 17 2 3 4 -33 4 -36 0 -50 -2 -32 -4z"/>
<path d="M3358 1453 c6 -2 18 -2 25 0 6 3 1 5 -13 5 -14 0 -19 -2 -12 -5z"/>
<path d="M3408 1453 c7 -3 16 -2 19 1 4 3 -2 6 -13 5 -11 0 -14 -3 -6 -6z"/>
<path d="M3680 1450 c0 -5 10 -10 23 -10 18 0 19 2 7 10 -19 13 -30 13 -30 0z"/>
<path d="M3730 1451 c0 -8 210 -3 219 5 2 2 -46 4 -107 4 -62 0 -112 -4 -112
-9z"/>
<path d="M1575 1418 c-30 -28 -37 -43 -45 -93 -23 -161 -34 -403 -21 -489 17
-117 66 -154 131 -100 l33 28 -6 90 c-7 104 -1 122 65 203 55 66 126 123 194
158 44 22 67 28 115 26 51 -1 63 2 84 23 47 47 20 125 -50 145 -81 22 -198
-36 -326 -164 l-80 -80 7 45 c3 25 12 70 20 101 19 76 18 95 -6 119 -30 30
-74 26 -115 -12z"/>
<path d="M1183 1413 c9 -2 23 -2 30 0 6 3 -1 5 -18 5 -16 0 -22 -2 -12 -5z"/>
<path d="M1284 1413 c7 -7 87 -5 95 3 2 2 -20 4 -49 4 -29 0 -50 -3 -46 -7z"/>
<path d="M2160 1416 c0 -9 40 -13 46 -5 3 5 -6 9 -20 9 -14 0 -26 -2 -26 -4z"/>
<path d="M3120 1410 c19 -13 30 -13 30 0 0 6 -10 10 -22 10 -19 0 -20 -2 -8
-10z"/>
<path d="M3218 1413 c6 -2 18 -2 25 0 6 3 1 5 -13 5 -14 0 -19 -2 -12 -5z"/>
<path d="M3284 1411 c7 -10 31 -9 42 2 4 4 -5 7 -20 7 -15 0 -25 -4 -22 -9z"/>
<path d="M1778 1403 c12 -2 30 -2 40 0 9 3 -1 5 -23 4 -22 0 -30 -2 -17 -4z"/>
<path d="M1750 1380 c0 -6 7 -10 15 -10 8 0 15 2 15 4 0 2 -7 6 -15 10 -8 3
-15 1 -15 -4z"/>
<path d="M3038 1383 c7 -3 16 -2 19 1 4 3 -2 6 -13 5 -11 0 -14 -3 -6 -6z"/>
<path d="M1458 1373 c6 -2 18 -2 25 0 6 3 1 5 -13 5 -14 0 -19 -2 -12 -5z"/>
<path d="M2593 1373 c9 -2 23 -2 30 0 6 3 -1 5 -18 5 -16 0 -22 -2 -12 -5z"/>
<path d="M3708 1373 c12 -2 30 -2 40 0 9 3 -1 5 -23 4 -22 0 -30 -2 -17 -4z"/>
<path d="M1178 1363 c7 -3 16 -2 19 1 4 3 -2 6 -13 5 -11 0 -14 -3 -6 -6z"/>
<path d="M1233 1363 c9 -2 23 -2 30 0 6 3 -1 5 -18 5 -16 0 -22 -2 -12 -5z"/>
<path d="M1328 1363 c6 -2 18 -2 25 0 6 3 1 5 -13 5 -14 0 -19 -2 -12 -5z"/>
<path d="M3138 1353 c7 -3 16 -2 19 1 4 3 -2 6 -13 5 -11 0 -14 -3 -6 -6z"/>
<path d="M3188 1353 c7 -3 16 -2 19 1 4 3 -2 6 -13 5 -11 0 -14 -3 -6 -6z"/>
<path d="M1363 1338 c-2 -5 14 -8 36 -8 23 0 41 3 41 8 0 4 -16 7 -36 7 -20 0
-38 -3 -41 -7z"/>
<path d="M3770 1340 c0 -5 7 -7 15 -4 8 4 15 8 15 10 0 2 -7 4 -15 4 -8 0 -15
-4 -15 -10z"/>
<path d="M2208 1333 c7 -3 16 -2 19 1 4 3 -2 6 -13 5 -11 0 -14 -3 -6 -6z"/>
<path d="M2518 1333 c6 -2 18 -2 25 0 6 3 1 5 -13 5 -14 0 -19 -2 -12 -5z"/>
<path d="M3638 1333 c7 -3 16 -2 19 1 4 3 -2 6 -13 5 -11 0 -14 -3 -6 -6z"/>
<path d="M1380 1310 c0 -5 10 -10 23 -10 18 0 19 2 7 10 -19 13 -30 13 -30 0z"/>
<path d="M3115 1310 c-19 -8 -19 -9 2 -9 12 -1 25 4 28 9 7 12 -2 12 -30 0z"/>
<path d="M2228 1303 c7 -3 16 -2 19 1 4 3 -2 6 -13 5 -11 0 -14 -3 -6 -6z"/>
<path d="M2508 1303 c7 -3 16 -2 19 1 4 3 -2 6 -13 5 -11 0 -14 -3 -6 -6z"/>
<path d="M3008 1303 c7 -3 16 -2 19 1 4 3 -2 6 -13 5 -11 0 -14 -3 -6 -6z"/>
<path d="M3628 1303 c7 -3 16 -2 19 1 4 3 -2 6 -13 5 -11 0 -14 -3 -6 -6z"/>
<path d="M2998 1253 c6 -2 18 -2 25 0 6 3 1 5 -13 5 -14 0 -19 -2 -12 -5z"/>
<path d="M3128 1253 c12 -2 30 -2 40 0 9 3 -1 5 -23 4 -22 0 -30 -2 -17 -4z"/>
<path d="M3778 1248 c6 -6 18 -8 28 -6 14 3 12 5 -9 10 -19 3 -25 2 -19 -4z"/>
<path d="M3728 1243 c7 -3 16 -2 19 1 4 3 -2 6 -13 5 -11 0 -14 -3 -6 -6z"/>
<path d="M1408 1233 c7 -3 16 -2 19 1 4 3 -2 6 -13 5 -11 0 -14 -3 -6 -6z"/>
<path d="M3588 1233 c7 -3 16 -2 19 1 4 3 -2 6 -13 5 -11 0 -14 -3 -6 -6z"/>
<path d="M3707 1199 c-53 -8 -75 -19 -36 -18 48 1 114 15 99 20 -8 3 -37 2
-63 -2z"/>
<path d="M1425 1190 c-17 -7 -15 -9 13 -9 17 -1 32 4 32 9 0 12 -17 12 -45 0z"/>
<path d="M2550 1190 c-24 -8 -24 -8 5 -9 17 0 37 4 45 9 12 8 11 10 -5 9 -11
-1 -31 -5 -45 -9z"/>
<path d="M2130 1180 c0 -5 5 -10 11 -10 5 0 7 5 4 10 -3 6 -8 10 -11 10 -2 0
-4 -4 -4 -10z"/>
<path d="M3858 1173 c6 -2 18 -2 25 0 6 3 1 5 -13 5 -14 0 -19 -2 -12 -5z"/>
<path d="M2628 1143 c7 -3 16 -2 19 1 4 3 -2 6 -13 5 -11 0 -14 -3 -6 -6z"/>
<path d="M2540 1130 c-8 -5 -10 -10 -5 -10 6 0 17 5 25 10 8 5 11 10 5 10 -5
0 -17 -5 -25 -10z"/>
<path d="M2583 1113 c9 -2 25 -2 35 0 9 3 1 5 -18 5 -19 0 -27 -2 -17 -5z"/>
<path d="M1788 1043 c7 -3 16 -2 19 1 4 3 -2 6 -13 5 -11 0 -14 -3 -6 -6z"/>
<path d="M1863 1043 c15 -2 37 -2 50 0 12 2 0 4 -28 4 -27 0 -38 -2 -22 -4z"/>
<path d="M1978 973 c7 -3 16 -2 19 1 4 3 -2 6 -13 5 -11 0 -14 -3 -6 -6z"/>
<path d="M2148 973 c7 -3 16 -2 19 1 4 3 -2 6 -13 5 -11 0 -14 -3 -6 -6z"/>
<path d="M2745 940 c-7 -12 2 -12 30 0 19 8 19 9 -2 9 -12 1 -25 -3 -28 -9z"/>
<path d="M2028 693 c6 -2 18 -2 25 0 6 3 1 5 -13 5 -14 0 -19 -2 -12 -5z"/>
<path d="M3148 693 c6 -2 18 -2 25 0 6 3 1 5 -13 5 -14 0 -19 -2 -12 -5z"/>
<path d="M1778 633 c6 -2 18 -2 25 0 6 3 1 5 -13 5 -14 0 -19 -2 -12 -5z"/>
</g>
</svg>
